<svg width="308" height="12" viewBox="0 0 308 12" fill="none" xmlns="http://www.w3.org/2000/svg">
<g clip-path="url(#clip0_143_2)">
<rect width="1920" height="1348" transform="translate(-248 -298)" fill="white"/>
<mask id="mask0_143_2" style="mask-type:alpha" maskUnits="userSpaceOnUse" x="-10" y="0" width="379" height="12">
<rect x="-10" width="379" height="12" fill="#C4C4C4"/>
</mask>
<g mask="url(#mask0_143_2)">
<g filter="url(#filter0_d_143_2)">
<path d="M46.9272 -5.92111L47.8535 -6.11756L46.051 -6.39921L46.915 -6.60537C47.7815 -6.60349 48.9041 -6.29457 49.5149 -6.45871C49.5896 -6.61764 48.6461 -6.66864 48.4054 -6.79526C48.1923 -6.92504 48.0185 -7.05398 47.8858 -7.18053C48.3577 -7.17917 48.8765 -7.14856 49.4113 -7.0905C50.1308 -6.99568 50.8364 -6.94959 51.4504 -6.95731C52.706 -6.9317 53.9191 -6.95725 55.2841 -6.95162L54.83 -7.33409L56.5893 -7.24462C56.7758 -7.21548 56.998 -7.26234 57.1812 -7.22629C58.7059 -6.9213 59.3511 -7.0875 60.083 -7.2253C60.2331 -7.26096 60.4139 -7.28759 60.6206 -7.30448C62.6545 -7.23142 64.4886 -6.80391 66.3204 -6.58445C66.6651 -6.52841 66.9958 -6.45649 67.2889 -6.37377C67.926 -6.21296 68.6347 -6.08167 69.3501 -5.99191C70.0656 -5.90214 70.7649 -5.85678 71.3842 -5.85995C72.7537 -5.8635 74.3009 -5.75713 75.8761 -5.55115C76.3446 -5.4833 76.8133 -5.43855 77.2525 -5.41973C77.6917 -5.40091 78.0917 -5.40844 78.4268 -5.44185L79.4919 -5.22352C79.9535 -5.31211 80.5389 -5.36072 81.2125 -5.36639C81.8861 -5.37206 82.6338 -5.33467 83.4103 -5.2565C84.2378 -5.1717 85.0784 -5.11454 85.9369 -5.02488C87.7105 -4.85348 89.4366 -4.74865 91.0615 -4.71366C93.4814 -4.60997 95.8456 -4.52979 98.2869 -4.40051C99.8141 -4.33811 101.302 -4.30379 102.742 -4.29773C104.467 -4.27332 106.333 -4.15516 108.249 -3.94895V-3.94895C108.158 -3.75548 107.318 -3.81264 106.754 -3.81918C104.934 -3.85134 103.072 -3.93467 101.2 -3.99727C100.356 -4.0217 99.5364 -4.03096 98.7442 -4.02496C97.4199 -4.03298 96.0238 -4.08454 94.5798 -4.17874C92.2988 -4.28239 90.0906 -4.33221 87.9779 -4.3277C87.8123 -4.32004 87.6606 -4.30646 87.5252 -4.28719C87.497 -4.2705 87.4914 -4.24946 87.509 -4.22608C87.5266 -4.2027 87.5669 -4.17775 87.6259 -4.15365C87.6849 -4.12955 87.7606 -4.10709 87.8459 -4.08842C87.9312 -4.06974 88.0232 -4.05548 88.113 -4.04701C88.9521 -3.91589 89.8533 -3.77507 90.6447 -3.75526C90.6752 -3.75378 90.7078 -3.7504 90.7401 -3.74536C90.7723 -3.74032 90.8034 -3.73375 90.8311 -3.72612C92.6026 -3.44933 94.0591 -3.49617 95.439 -3.45113C97.73 -3.32942 99.9386 -3.27257 102.031 -3.28144C102.347 -3.28083 102.689 -3.26501 103.043 -3.23454C105.235 -3.11103 107.284 -3.09722 109.095 -3.19372C109.841 -3.21817 110.534 -3.27306 111.335 -3.27398C111.828 -3.27776 112.258 -3.31278 112.597 -3.37696C112.937 -3.44114 113.18 -3.53314 113.312 -3.64744C113.65 -3.58726 113.993 -3.53363 114.337 -3.48719C114.543 -3.46064 114.74 -3.45359 114.889 -3.46748C115.038 -3.48138 115.128 -3.51518 115.14 -3.56206C115.201 -3.69334 114.732 -3.75927 114.325 -3.81549C114.57 -3.84365 114.847 -3.86021 115.148 -3.86479C116.846 -3.89478 118.666 -3.85938 120.57 -3.75935C122.048 -3.63961 123.228 -3.73707 124.783 -3.56821C124.97 -3.53908 125.123 -3.58184 125.295 -3.59211C125.743 -3.64618 126.3 -3.65834 126.919 -3.62751C127.538 -3.59668 128.2 -3.5238 128.848 -3.41519C129.655 -3.71192 131.397 -3.37293 132.684 -3.34247C133.08 -3.19156 132.625 -3.21809 132.606 -3.17663C132.586 -3.13518 132.606 -3.17664 132.45 -3.20092C131.166 -2.98722 129.406 -2.94062 127.417 -3.06768C127.049 -3.06715 126.699 -3.05741 126.369 -3.03856C125.87 -3.01188 125.307 -3.01455 124.705 -3.04644C124.047 -3.06986 123.443 -3.05874 122.922 -3.01361C122.622 -3.01434 122.368 -2.99173 122.184 -2.94786C122 -2.90398 121.892 -2.84027 121.87 -2.76263C122.07 -2.70279 122.292 -2.64802 122.527 -2.60052C123.756 -2.41296 124.981 -2.33533 125.961 -2.38289C127.668 -2.46484 129.699 -2.38487 131.513 -2.41285C132.74 -2.42418 134.045 -2.3919 135.404 -2.3166C135.404 -2.3166 135.369 -2.24059 135.365 -2.23368C135.526 -2.20077 135.695 -2.17437 135.863 -2.15598C135.863 -2.15598 135.863 -2.15598 135.879 -2.19053C135.804 -2.22371 135.703 -2.25492 135.587 -2.28055L135.183 -2.34368C135.458 -2.36011 135.715 -2.40903 136.001 -2.37914C136.604 -2.32362 137.18 -2.30018 137.695 -2.31021C138.21 -2.32025 138.653 -2.36356 138.997 -2.43754C139.607 -2.53236 140.366 -2.57548 141.225 -2.56412C141.883 -2.57447 142.517 -2.59672 143.124 -2.63075C143.124 -2.63075 143.163 -2.71366 143.451 -2.75773C143.179 -2.81208 142.895 -2.85646 142.612 -2.88884C141.382 -2.96973 140.149 -3.04371 138.941 -3.09901C138.496 -3.10498 138.077 -3.09572 137.694 -3.07139C136.631 -3.04293 135.436 -3.08333 134.18 -3.19024C134.18 -3.19024 133.931 -3.22908 133.807 -3.24851C134.16 -3.43077 135.375 -3.2483 135.866 -3.37173C136.166 -3.36949 136.692 -3.35397 136.674 -3.38646C136.633 -3.42982 136.628 -3.47011 136.66 -3.50442C136.691 -3.53874 136.759 -3.56623 136.857 -3.58494C136.955 -3.60364 137.081 -3.6131 137.227 -3.61262C137.373 -3.61214 137.534 -3.60173 137.7 -3.58216C139.083 -3.47626 140.386 -3.44681 141.529 -3.49562C141.962 -3.49467 142.448 -3.46329 142.878 -3.45544C143.141 -3.44598 143.381 -3.45124 143.586 -3.47093C144.625 -3.61591 146.023 -3.6265 147.57 -3.5011C148.317 -3.45602 149.016 -3.44999 149.63 -3.48332C150.066 -3.48929 150.251 -3.3862 150.562 -3.33764L151.882 -3.23528L150.187 -3.10701C150.549 -2.81306 150.837 -2.71613 151.429 -2.69782C152.292 -2.67016 153.133 -2.65767 153.947 -2.66041C154.548 -2.66283 155.045 -2.72613 155.86 -2.61369C156.003 -2.59535 156.142 -2.58942 156.252 -2.59688C157.206 -2.6967 158.354 -2.71961 159.619 -2.66405C160.274 -2.85097 161.39 -2.66923 162.422 -2.5228C162.755 -2.6636 162.152 -2.72824 161.792 -2.81415C162.655 -2.80535 163.525 -2.81038 164.416 -2.78982C164.684 -2.7973 164.99 -2.7845 165.311 -2.75241C165.631 -2.72033 165.957 -2.66984 166.264 -2.6049C166.413 -2.56294 166.593 -2.53136 166.766 -2.51672C166.939 -2.50208 167.093 -2.50549 167.194 -2.52626C167.657 -2.5875 168.397 -2.53109 168.779 -2.63455C168.915 -2.65834 169.11 -2.66166 169.327 -2.64393C169.545 -2.6262 169.772 -2.58857 169.968 -2.53778V-2.53778C169.754 -2.52193 169.563 -2.49697 169.4 -2.46346C168.815 -2.3546 169.03 -2.1727 169.773 -1.90824C170.914 -1.92279 172.079 -1.91866 173.137 -1.9685C173.726 -2.01324 174.449 -1.99925 175.223 -1.92811C175.997 -1.85697 176.792 -1.73149 177.518 -1.56578C177.781 -1.50206 178.081 -1.45793 178.357 -1.44215C178.634 -1.42636 178.868 -1.44009 179.012 -1.4806C179.102 -1.52745 179.13 -1.58674 179.094 -1.65334L178.348 -1.76988C178.348 -1.76988 178.377 -1.83207 178.383 -1.84589L179.456 -1.85634C180.023 -1.8567 180.615 -1.83838 181.151 -1.8436C181.939 -1.87831 182.838 -1.85896 183.793 -1.78677C184.674 -1.71274 185.54 -1.65679 186.383 -1.6194C187.199 -1.58091 187.791 -1.7036 188.567 -1.72319C189.154 -1.73796 189.8 -1.72218 190.48 -1.67646C191.655 -1.59537 192.732 -1.59522 193.616 -1.67602C194.645 -1.24069 195.146 -1.16991 196.102 -1.28754L196.551 -1.32114L196.674 -1.22777L197.017 -1.24831C197.66 -1.26659 198.302 -1.28488 198.973 -1.2914C199.905 -1.251 200.911 -1.1423 201.893 -0.975929C202.08 -0.946792 202.334 -0.847799 202.497 -0.770294C202.661 -0.692789 203.018 -0.458977 203.28 -0.306771C202.995 -0.19566 202.678 -0.0894098 202.451 0.038323C202.428 0.0601445 202.431 0.0861666 202.458 0.114295C202.485 0.142424 202.536 0.171881 202.607 0.200289C202.678 0.228698 202.767 0.255265 202.867 0.277866C202.966 0.300467 203.074 0.318469 203.181 0.33042C203.39 0.356178 203.596 0.373352 203.791 0.381229C204.751 0.394816 205.671 0.384719 206.541 0.351032C206.859 0.303512 207.293 0.298994 207.776 0.338212C208.26 0.377429 208.763 0.458132 209.208 0.567521C210.346 0.501848 211.669 0.521249 213.084 0.624375C214.582 0.561656 216.39 0.688492 217.789 0.551071C217.757 0.620168 217.901 0.739134 218.102 0.807675C218.421 0.911785 218.781 1.00827 219.169 1.09304L222.127 1.25856C222.238 1.34367 222.376 1.42983 222.54 1.51592C222.652 1.58391 222.848 1.65045 223.086 1.70142C223.323 1.7524 223.584 1.78381 223.813 1.78898C224.401 1.8142 224.895 1.7578 225.597 1.89713C224.516 2.02884 223.058 2.01134 221.483 1.84776C220.004 1.72334 218.58 1.66117 217.266 1.66353C216.833 1.66259 216.263 1.66986 216.127 1.74511C215.827 1.95782 215.042 1.92419 214.127 1.88496C213.407 1.84201 212.75 1.84683 212.21 1.89902C211.669 1.95122 211.26 2.04929 211.017 2.18518C210.955 2.31647 211.103 2.42853 211.734 2.50492L214.359 2.81125C214.746 2.77186 215.113 2.72524 215.459 2.67158C216.041 2.60031 216.76 2.58074 217.56 2.61441C218.36 2.64808 219.22 2.73408 220.071 2.86571C220.506 2.93369 220.941 3.00167 221.257 2.96937C221.533 2.93227 221.788 2.88784 222.02 2.83642C222.066 2.80196 222.085 2.76229 222.075 2.71895C222.242 2.73911 222.41 2.76531 222.572 2.79665C223.868 3.16233 224.872 3.15601 225.784 3.06115C226.031 3.03296 226.218 2.98814 226.468 2.95304C226.718 2.91793 226.807 2.87237 227.034 2.88564C228.846 3.00556 229.367 2.60499 230.894 2.62108C230.969 2.60544 231.015 2.58204 231.029 2.55306C231.042 2.52408 231.023 2.49045 230.972 2.45525C230.864 2.42347 230.74 2.39614 230.609 2.37578C230.479 2.35541 230.347 2.34267 230.226 2.33871C229.524 2.28731 228.903 2.30306 228.471 2.3833C228.164 2.41609 227.84 2.44221 227.5 2.46153L225.971 1.88145C227.452 1.93462 228.853 1.93427 230.141 1.88041C230.422 1.85016 230.898 1.90227 231.294 1.91218L234.204 1.9664C234.803 1.97089 235.312 1.87996 236.147 2.09194C236.147 2.09194 236.698 2.12612 236.845 2.09717C236.992 2.06823 237.644 1.88821 238.032 1.77094C238.484 1.80438 239.108 1.8946 239.389 1.86435C239.88 1.79005 240.306 1.69481 240.657 1.58033L242.415 1.74376C242.413 1.88895 242.349 2.02553 242.224 2.15143C242.086 2.27286 242.091 2.41862 242.237 2.57678C242.383 2.73495 242.666 2.90104 243.064 3.06149L244.8 3.91124C245.083 3.96815 245.385 4.00645 245.664 4.02095C245.944 4.03546 246.188 4.02546 246.363 3.99231C247.109 3.89391 247.946 3.81699 248.693 3.71858C249.656 3.86912 249.409 4.11227 250.109 4.32556L252.378 4.68004C252.724 5.00854 253.076 5.32323 252.024 5.4332C251.815 5.45243 251.956 5.57831 251.765 5.63004C252.583 5.87656 253.483 5.95036 254.312 6.1022C254.639 6.2114 254.912 6.327 255.119 6.4434C255.346 6.61867 255.806 6.7977 256.4 6.94185C256.994 7.08599 257.674 7.18368 258.293 7.2138C259.332 7.30609 260.396 7.44469 261.437 7.62341C261.792 7.68555 262.158 7.73083 262.508 7.75619C262.859 7.78155 263.187 7.7864 263.469 7.77042C264.476 7.74228 265.329 7.64551 265.971 7.48642C266.606 7.35141 267.462 7.28634 268.462 7.2971C270.171 7.56419 270.516 7.96665 271.55 8.32112L269.764 8.36086C269.699 8.49906 269.817 8.6733 269.085 8.67011C268.352 8.66692 268.724 8.79915 268.961 8.93268C269.045 8.99985 269.208 9.06894 269.424 9.12827C269.639 9.18759 269.893 9.23349 270.143 9.2582L271.664 9.42912C272.203 9.49416 272.725 9.52193 273.172 9.50939C273.62 9.49685 273.975 9.44447 274.199 9.35801C274.457 9.27592 274.812 9.22038 275.243 9.19482C275.793 9.12784 276.245 9.02824 276.583 8.89977L278.73 9.08694C278.821 8.95784 279.116 8.86733 279.565 8.83069C280.014 8.79405 280.589 8.81353 281.193 8.88586L282.64 9.00074C284.249 9.12608 284.602 9.08482 285.073 8.72085L283.144 8.07073C283.424 7.89949 283.695 7.74897 283.966 7.59845C283.485 7.38427 282.844 7.18168 282.107 7.01128C281.419 6.82817 280.712 6.65083 279.988 6.47994C279.203 6.30531 278.373 6.15346 277.398 5.95661C277.228 5.89292 276.981 5.78012 276.665 5.67142C276.349 5.5658 276.019 5.46226 275.676 5.36121C275.741 5.22302 275.8 5.09864 275.675 4.93822C276.275 4.98941 276.896 5.07894 277.48 5.19873C278.064 5.31852 278.594 5.46481 279.022 5.62441C279.094 5.65272 279.182 5.6793 279.281 5.70237C279.379 5.72544 279.486 5.74446 279.593 5.75814C280.648 5.8562 281.152 6.06107 281.668 6.31226C282.015 6.44066 282.463 6.5547 282.949 6.63853C283.881 6.78422 284.794 6.97136 285.686 7.13292C285.959 7.18676 286.242 7.23107 286.525 7.26403C287.457 7.36884 288.395 7.51539 289.291 7.69623C289.583 7.74219 289.864 7.80302 290.109 7.87362C290.355 7.94422 290.558 8.02254 290.701 8.10206C290.48 8.18918 290.36 8.29914 290.349 8.42532C290.311 8.50823 290.965 8.67727 291.274 8.79978C291.584 8.92229 290.977 8.86457 290.771 8.87689C289.926 8.90059 289.769 8.95026 290.275 9.22218C290.444 9.30768 290.557 9.39324 290.605 9.47352C290.653 9.5538 290.637 9.62711 290.557 9.68889C290.436 9.94454 290.071 10.1544 289.82 10.4045C290.21 10.5692 290.861 10.7451 290.932 10.9491C290.966 10.9943 291.038 11.0422 291.143 11.0894C291.248 11.1366 291.383 11.1818 291.538 11.2217C291.947 11.308 292.319 11.4113 292.625 11.5234C292.931 11.6355 293.163 11.7535 293.302 11.8683C293.348 11.9158 293.458 11.9661 293.611 12.0093C293.764 12.0525 293.949 12.0852 294.127 12.101C294.34 12.1204 294.531 12.1179 294.661 12.0939C294.79 12.0699 294.847 12.0263 294.821 11.9722C294.827 11.8704 294.798 11.7644 294.737 11.6549C294.773 11.5789 294.808 11.5029 294.667 11.377C295.304 11.4229 295.973 11.515 296.601 11.6432C297.229 11.7714 297.792 11.9308 298.229 12.1041C298.712 12.2834 299.157 12.4716 299.692 12.6814C299.582 12.9163 299.582 12.9163 300.721 13.3317L306.764 13.5342L308.003 13.8093C309.158 14.0491 309.432 14.0327 310.158 13.9087L310.646 13.7922C311.672 13.9524 312.853 14.137 313.494 13.8367C313.702 14.0324 313.838 14.0981 313.791 14.1278C313.485 14.4167 312.953 14.6617 312.216 14.8533C312.028 14.8981 311.896 14.9665 311.677 15.0065C310.971 15.232 310.807 15.5805 311.219 15.9807C311.424 16.1578 311.721 16.3392 312.101 16.5189C311.545 16.7684 310.808 16.9751 309.91 17.1335C309.149 17.256 308.522 17.4201 308.047 17.6211C307.621 17.8237 306.982 17.976 306.168 18.0692C305.756 18.1089 305.454 18.1871 305.295 18.2961C305.247 18.5912 305.356 18.9072 305.62 19.237C305.669 19.3373 305.81 19.4457 306.032 19.5537C306.253 19.6616 306.549 19.7661 306.895 19.8591C306.895 19.8591 307.062 19.9297 307.143 19.9719C307.21 20.3292 306.959 20.6442 306.409 20.8955C306.318 20.9668 306.134 21.0184 305.875 21.0445C305.615 21.0707 305.292 21.0705 304.938 21.044C304.191 21.0014 303.492 20.9961 302.77 20.9722C301.991 20.9384 301.305 20.965 300.784 21.0494C300.263 21.1337 299.926 21.2727 299.809 21.4515C299.802 21.5022 299.779 21.5507 299.741 21.5966C299.719 21.6203 299.707 21.6458 299.705 21.6726L301.365 22.2583L299.487 22.4915C299.377 22.7265 300.278 22.8673 300.73 23.0417L300.451 23.139C300.091 23.1941 299.607 23.0888 299.169 23.0277L298.734 22.9597L298.682 23.0703C298.411 23.2208 297.423 23.0516 297.037 23.1619C296.652 23.2723 296.927 23.3969 297.505 23.5168C297.906 23.6059 298.337 23.677 298.765 23.7246C299.194 23.7723 299.608 23.7953 299.977 23.7919C300.198 23.7801 300.381 23.7531 300.515 23.7127C301.294 23.5406 302.155 23.3925 303.092 23.2698C303.809 23.1595 304.708 23.1127 305.725 23.1324C306.023 23.1241 306.383 23.1502 306.741 23.2062C307.099 23.2621 307.432 23.3443 307.683 23.4383V23.4383L308.209 23.4538C308.209 23.4538 308.497 23.5508 308.456 23.5666C308.256 23.8538 308.489 24.2049 309.12 24.5678V24.5678L308.571 24.6007C307.786 24.5671 308.284 24.7858 308.167 24.8935C307.609 24.8731 306.885 24.7822 306.62 24.9189L306.225 24.909L306.38 24.9333L306.568 24.8884L307.306 25.0928C306.956 25.1271 306.703 25.1691 306.394 25.1876C306.223 25.2037 306.087 25.2321 305.995 25.2711C305.902 25.3101 305.854 25.359 305.854 25.4147C305.854 25.5004 305.762 25.5726 305.586 25.6242C305.41 25.6759 305.156 25.7054 304.848 25.7099C304.48 25.7118 304.269 25.805 304.053 25.838L304.991 26.3998C304.991 26.3998 304.524 26.3269 304.778 26.4259L304.811 26.3568L305.378 26.4975C305.787 26.6207 306.074 26.6506 306.315 26.5623C306.557 26.4739 306.502 26.5914 306.618 26.5576C306.576 26.6474 306.313 26.7102 306.087 26.764C305.826 26.8062 305.532 26.8373 305.21 26.8568C305.791 27.2518 305.819 27.2635 304.969 27.3681C304.12 27.4726 304.413 27.6297 303.702 27.6521C302.991 27.6745 303.799 27.9418 304.275 27.9939C304.628 28.0281 304.988 28.0815 305.33 28.1503C305.672 28.2191 305.988 28.3017 306.256 28.3924L306.113 28.6965C305.904 28.6713 305.694 28.6385 305.492 28.5993C304.803 28.4324 304.176 28.2751 303.564 28.3722L303.855 28.6032L301.717 28.4693C301.772 28.6424 302.098 28.8396 302.626 29.0193V29.0193C302.546 29.118 302.497 29.2219 302.48 29.3302C302.444 29.4062 302.233 29.3584 302.096 29.3666C301.606 29.3793 301.204 29.4308 300.925 29.5166C300.646 29.6024 300.499 29.7198 300.497 29.8585C300.442 29.976 301.195 30.2197 301.665 30.2117C302.841 30.2351 304.112 30.3255 305.41 30.4779C306.201 30.4977 306.313 30.1888 307.615 30.3997C307.641 30.5423 307.474 30.6577 307.14 30.7286C306.806 30.7995 306.322 30.8219 305.763 30.7925C306.081 31.1093 307.843 31.1919 307.921 31.523C307.482 31.4996 307.013 31.4445 306.56 31.3633C306.107 31.2821 305.685 31.1774 305.337 31.0598C305.262 31.0308 305.167 31.0041 305.063 30.9821C304.958 30.9601 304.846 30.9435 304.737 30.9339C304.629 30.9243 304.527 30.9221 304.441 30.9273C304.356 30.9325 304.289 30.945 304.248 30.9637C304.492 31.0835 304.76 31.2219 305.066 31.3513C305.373 31.4807 305.446 31.5367 305.667 31.5638C307.314 31.8212 308.097 32.2847 309.522 32.589C309.895 32.6472 309.942 32.8325 309.618 32.8116C309.31 32.7906 309.031 32.7934 308.813 32.8195C308.594 32.8456 308.445 32.8941 308.381 32.9595C308.142 33.0357 307.844 33.0964 307.495 33.14C308.957 33.6157 310.699 34.036 312.559 34.3615C312.911 34.4258 313.279 34.465 313.608 34.4734C314.646 34.4738 315.748 34.5116 316.891 34.5858C317.296 34.6061 317.671 34.6042 317.994 34.5803C319.055 34.5235 319.897 34.6477 320.667 34.9979L321.941 35.5529C321.898 35.6428 321.685 35.7429 321.52 35.8803L322.515 36.1767L330.108 35.4941L331.632 36.155L333.818 36.1183C333.985 36.1374 334.154 36.1637 334.315 36.196C334.757 36.3911 335.103 36.5786 335.582 36.7648C336.062 36.951 336.919 36.9736 337.516 37.1931C338.114 37.4125 338.712 37.417 339.451 37.5474C339.521 37.7172 339.449 37.8701 339.24 37.9965C339.172 38.1416 338.797 38.2313 338.732 38.3695C338.739 38.5091 338.599 38.6277 338.325 38.7144C338.052 38.8012 337.652 38.8533 337.164 38.8662C335.796 39.1636 334.146 39.3753 332.265 39.4951C332.1 39.5038 331.963 39.5239 331.862 39.5541C331.762 39.5844 331.701 39.6241 331.682 39.671C331.685 39.8065 331.559 39.9237 331.315 40.0138C331.07 40.104 330.713 40.1648 330.27 40.192C330.151 40.1974 330.062 40.2144 330.013 40.2409C329.845 40.258 329.722 40.2906 329.657 40.3358C329.592 40.3809 329.587 40.4369 329.642 40.4984C329.697 40.56 329.81 40.6249 329.971 40.687C330.132 40.7491 330.334 40.8062 330.56 40.8529C330.886 40.9281 331.22 41 331.559 41.0684C331.54 41.1099 331.203 41.1166 331.252 41.154C331.385 41.2732 331.416 41.3849 331.342 41.4802C331.268 41.5755 331.092 41.6519 330.827 41.7032L332.642 42.6691C333.744 42.8029 334.824 43.0298 335.678 43.3067C335.68 43.3521 335.63 43.3901 335.536 43.417C335.441 43.4438 335.305 43.4586 335.14 43.4598C334.697 43.4796 334.278 43.5181 333.801 43.5399C333.509 43.5562 333.266 43.5921 333.087 43.6456C332.907 43.699 332.794 43.7688 332.754 43.851L333.82 44.2104C333.478 44.2979 333.225 44.3399 332.999 44.3937C333.127 44.5066 333.347 44.6234 333.642 44.7351C333.936 44.8467 334.298 44.9502 334.699 45.0375C334.806 45.0555 334.916 45.0686 335.021 45.0762C335.126 45.0837 335.225 45.0855 335.312 45.0814C336.137 44.9581 337.102 45.1757 338.04 45.3815C338.977 45.5874 339.486 45.7114 340.178 45.8714L341.502 45.8929C341.838 45.9687 342.137 46.0578 342.376 46.1531C342.615 46.2484 342.787 46.3473 342.879 46.4418C342.808 46.5938 342.18 46.5105 341.805 46.5262C340.917 46.6208 339.75 46.6006 338.496 46.469C338.186 46.4204 337.867 46.4597 337.564 46.4643C336.912 46.4832 336.285 46.514 335.686 46.5565C335.292 46.5961 334.924 46.6451 334.583 46.7031C334.493 46.8966 335.924 47.046 335.111 47.1416C335.391 47.1853 335.496 47.2462 335.64 47.2242C336.561 47.3498 337.469 47.4119 338.258 47.4033C339.772 47.3766 341.491 47.4648 343.274 47.6606C345.199 47.8634 347.046 47.9486 348.662 47.909C349.277 47.9067 349.965 47.9483 350.673 48.0305C351.509 48.1444 352.339 48.216 353.109 48.2406C353.365 48.2415 353.649 48.2609 353.939 48.2972C354.229 48.3335 354.517 48.3857 354.779 48.4496V48.4496C354.757 48.498 354.507 48.5331 354.562 48.5566C355.36 48.9186 355.683 49.2954 356.91 49.6652C357.749 49.7963 358.713 49.9469 359.262 49.773C359.81 49.5992 359.614 49.4498 358.522 49.0047C358.759 48.9983 359.044 49.0191 359.328 49.0635C359.612 49.1079 359.877 49.173 360.076 49.2475L361.02 49.5805L361.871 49.8989C361.797 50.0579 361.738 50.1822 361.676 50.3135C361.579 50.453 361.686 50.6227 361.982 50.7989C362.161 50.8951 362.317 50.9913 362.448 51.0867C362.98 51.4681 363.134 51.8287 362.893 52.1278C362.43 52.558 361.787 52.9538 360.969 53.3107C360.105 53.6578 359.633 54.0957 358.921 54.4741C358.558 54.6464 358.118 54.8008 357.604 54.9357C356.629 55.2358 355.561 55.5213 354.582 55.8283C353.604 56.1353 352.5 56.3558 351.413 56.6089C349.796 56.9092 348.048 57.1685 346.178 57.3855C345.021 57.5755 343.834 57.7608 342.763 57.9793C341.5 58.2255 340.015 58.4024 338.346 58.5054C336.873 58.6288 335.556 58.8112 334.421 59.0492C334.302 59.0749 334.209 59.1077 334.142 59.1465C333.938 59.3892 333.366 59.5602 332.512 59.6335C332.564 59.7045 332.63 59.7768 332.711 59.8499C332.829 59.9371 332.854 60.0187 332.782 60.084C332.709 60.1494 332.543 60.1957 332.305 60.2167C331.623 60.2768 331.055 60.3789 330.629 60.5185C330.472 60.5535 330.375 60.6045 330.346 60.667C330.316 60.7296 330.355 60.8019 330.46 60.8778C330.553 60.9558 330.56 61.0276 330.48 61.0839C330.4 61.1402 330.237 61.1783 330.012 61.1934C329.434 61.2672 328.815 61.3267 328.16 61.3713C326.765 61.4697 325.143 61.4685 323.391 61.3678C323.205 61.3387 323.017 61.3835 322.799 61.3495C321.561 61.2367 320.41 61.2193 319.487 61.2992C318.405 61.3304 317.274 61.3242 316.133 61.3388C314.484 61.329 312.963 61.3883 311.613 61.5151C310.069 61.3926 309.202 61.6057 307.899 61.6098C306.696 61.6316 305.556 61.6841 304.489 61.7667C302.77 61.8763 301.057 61.9721 299.362 62.1004C297.772 62.1615 296.308 62.2784 294.995 62.4489C294.492 62.5261 293.581 62.406 293.238 62.5675C292.895 62.729 292.204 62.71 291.645 62.7636L289.881 62.8959C289.578 62.9274 289.244 62.9474 288.886 62.9555C287.246 62.9663 286.111 63.182 284.589 63.226L284.433 63.2017C281.731 63.5223 278.639 63.6983 275.247 63.7244C273.266 63.8228 271.1 63.8181 268.998 63.8901C268.497 64.0343 267.313 63.8567 266.684 63.9883C266.055 64.12 265.028 64.0337 264.217 64.0553C263.406 64.077 262.613 64.1311 261.747 64.1292C260.994 64.1299 260.359 64.1887 259.899 64.3003C258.847 64.4848 257.566 64.5933 256.112 64.6209C254.188 64.6688 252.369 64.7776 250.412 64.7537C250.44 64.8882 250.32 65.0026 250.064 65.0852C249.808 65.1677 249.426 65.2155 248.957 65.2235C246.864 65.2748 244.967 65.4085 242.846 65.4481L242.279 65.4484L235.938 65.5256C234.23 65.5405 232.584 65.5652 230.841 65.5821C230.188 65.4801 230.172 65.6557 229.721 65.6222C229.595 65.5358 229.446 65.4977 229.224 65.5445L229.175 65.6482L221.938 65.7857C219.105 65.8862 216.125 65.9164 213.022 65.8759C212.287 65.8861 211.6 65.9204 210.973 65.9784C210.392 65.9995 209.786 66.0089 209.158 66.0064C208.31 65.9803 207.481 65.9671 206.675 65.9669C204.555 66.0065 202.33 65.9851 200.008 65.9561C197.686 65.9271 195.928 65.9787 193.861 65.9747C192.462 65.9711 191.069 65.9537 189.62 65.9128C188.929 65.8937 188.077 65.7903 187.36 65.7525C186.644 65.7148 186.41 65.7153 186.316 65.7747C186.004 65.9411 185.221 65.8335 184.594 65.8173C183.373 65.7896 183.2 65.7328 182.868 65.3027L184.367 65.1661C184.734 65.1219 185.196 65.1142 185.708 65.1435C186.22 65.1729 186.765 65.2384 187.29 65.3336C187.497 65.3745 187.713 65.4067 187.926 65.4286C188.139 65.4504 188.345 65.4614 188.532 65.4608C190.044 65.4375 191.534 65.3886 192.988 65.3487L193.2 65.3225L193.213 64.939C193.021 64.9013 192.822 64.8702 192.623 64.8467L185.334 64.5978C183.662 64.5367 181.925 64.3988 180.283 64.3426C178.642 64.2864 177.757 64.252 176.483 64.1939C175.946 64.1608 175.398 64.1173 174.843 64.0637C174.875 64.0267 174.894 63.9875 174.899 63.9462C174.928 63.884 174.967 63.8011 174.731 63.7346C174.474 63.6407 174.13 63.5606 173.769 63.5101C173.429 63.4768 173.1 63.4579 172.794 63.4543C171.316 63.4221 169.628 63.2195 168.089 62.8896L167.552 63.1098C165.242 62.9861 162.897 62.8645 160.483 62.747C160 62.7149 159.493 62.6534 159 62.5671C158.472 62.4846 157.986 62.3122 157.429 62.2179C156.88 62.15 156.334 62.097 155.802 62.06C155.946 62.0034 156.136 61.9581 156.366 61.9256C156.592 61.9142 156.757 61.8788 156.836 61.8245C156.916 61.7703 156.906 61.7 156.808 61.6238C156.636 61.4931 156.56 61.37 156.934 61.3543C157.28 61.3245 157.528 61.26 157.648 61.1683C157.768 61.0767 157.755 60.9617 157.611 60.837C157.548 60.7641 157.504 60.6928 157.478 60.6234V60.6234L157.323 60.5991C156.81 60.341 155.786 60.2478 155.052 60.0366C154.705 59.9753 154.346 59.9401 154.031 59.9365C153.218 59.8911 152.427 59.8713 151.587 59.8141C151.185 59.7878 150.765 59.7398 150.352 59.6731C149.761 59.5808 149.699 59.5711 149.356 59.2357C149.889 59.2415 150.311 59.1914 150.551 59.0938C150.792 58.9962 150.836 58.8572 150.675 58.7001C150.236 58.357 149.772 57.9953 147.785 57.7515C148.433 57.7395 149.057 57.7157 149.653 57.6801C149.827 57.6724 149.957 57.6472 150.026 57.6078C150.095 57.5685 150.1 57.5168 150.039 57.4598C149.979 57.4028 149.857 57.3431 149.689 57.2888C149.521 57.2345 149.315 57.1881 149.099 57.1558C148.05 56.9618 146.956 56.8319 145.939 56.7808C145.083 56.7582 144.309 56.7708 143.309 56.7703L142.128 56.5857C142.147 56.5443 141.974 56.4875 142.018 56.4647C142.318 56.252 142.649 56.0442 142.99 55.8156C142.446 55.6922 141.974 55.5432 141.629 55.3856C141.284 55.2281 141.08 55.0685 141.04 54.9249C141.011 54.8816 141.018 54.8422 141.062 54.8094C141.107 54.7765 141.186 54.7512 141.296 54.735C141.607 54.7073 141.847 54.6542 141.997 54.58C142.148 54.5058 142.205 54.4124 142.164 54.307L141.246 53.9187C138.481 53.6417 135.765 53.4438 133.15 53.3286L130.789 53.2416C130.504 53.1377 130.592 53.0922 130.86 53.0895C131.128 53.0869 131.882 53.1157 132.409 53.1312C132.863 53.1516 133.267 53.1382 133.581 53.0924C133.894 53.0466 134.108 52.9698 134.199 52.8696L133.407 52.4268C133.446 52.3439 133.501 52.2264 133.931 52.2343C134.225 52.2247 134.441 52.1829 134.545 52.1158C134.649 52.0487 134.635 51.96 134.505 51.8642C134.485 51.7948 134.515 51.7317 134.593 51.6776C135.229 51.6731 135.861 51.6756 136.438 51.6545C136.707 51.6475 136.934 51.6218 137.103 51.5792C137.273 51.5366 137.382 51.4781 137.422 51.4076C137.442 51.3388 137.392 51.2605 137.273 51.1789C137.155 51.0973 136.973 51.0148 136.741 50.9379C135.837 50.8429 135.01 50.8416 134.441 50.9345C134.238 51.0073 133.913 51.0471 133.507 51.0486C133.102 51.0501 132.635 51.0132 132.169 50.9429C131.635 50.8618 131.103 50.8262 130.667 50.8424C130.231 50.8586 129.921 50.9256 129.792 51.0314C129.244 50.9903 128.759 50.9589 128.28 50.9137C127.714 50.8567 127.18 50.8399 126.735 50.8651C126.022 50.8829 125.253 50.8725 124.447 50.834C122.124 50.738 119.797 50.6489 117.548 50.6089C116.952 50.5975 116.438 50.6283 115.849 50.603C115.26 50.5778 114.795 50.646 114.059 50.5087C113.918 50.4874 113.777 50.4737 113.646 50.4687C113.516 50.4637 113.399 50.4675 113.305 50.4799C112.012 50.5885 110.496 50.6038 108.847 50.525C106.587 50.5058 104.245 50.4512 101.982 50.4388C101.318 50.4494 100.691 50.478 100.107 50.5241C99.6626 50.552 99.197 50.5709 98.7128 50.5807C98.3417 50.5894 97.9868 50.5637 98.0495 50.7144C98.1121 50.8651 97.556 50.7708 97.2355 50.7429C96.1343 50.6698 95.0088 50.5709 93.8717 50.4472C92.7512 50.3128 91.6533 50.2346 90.6438 50.2173C89.9146 50.2072 89.1627 50.2455 88.2253 50.0396C88.261 49.9636 88.2966 49.8876 88.5007 49.8083C87.7362 49.5899 86.8639 49.402 85.956 49.2601C85.0481 49.1183 84.1307 49.0265 83.2796 48.9924L82.106 48.5791C81.8171 48.5306 81.5221 48.4953 81.239 48.4752C80.9559 48.4552 80.6907 48.451 80.4593 48.4627C80.2806 48.4687 80.0628 48.4534 79.8458 48.4195C79.6289 48.3856 79.4274 48.3354 79.2783 48.2782C79.0555 48.2054 78.7833 48.1427 78.4958 48.0977C78.2084 48.0528 77.9184 48.0278 77.6623 48.0257C76.8559 47.9807 75.9952 47.877 75.1682 47.725C74.9535 47.6359 74.8191 47.5438 74.7813 47.4602C74.7436 47.3765 74.8042 47.3049 74.9557 47.2542C75.2001 47.1646 75.3372 47.0505 75.359 46.9188C75.3807 46.787 75.2866 46.6404 75.0822 46.4878C74.9776 46.394 74.9426 46.3053 74.9795 46.227C75.0163 46.1486 75.1241 46.0822 75.2965 46.0317C75.9398 45.7985 75.7677 45.6678 74.7152 45.2808C74.5442 45.2163 74.3381 45.156 74.1099 45.1037C73.8818 45.0515 73.6366 45.0084 73.3899 44.9773C72.8111 44.9142 72.2401 44.8673 71.6876 44.8374C71.3768 44.7888 71.0581 44.828 70.7 44.8092C68.9096 44.7148 68.6475 44.5626 68.0676 44.2347L67.645 43.998C66.8613 43.8064 66.0042 43.6472 65.1353 43.532C64.2665 43.4167 63.4077 43.3483 62.6207 43.3316C62.3079 43.3304 61.9482 43.2976 61.5969 43.2384C60.4536 43.0573 59.2958 42.9321 58.2002 42.8708C57.5174 42.8364 56.7814 42.7472 56.0806 42.614C55.3798 42.4808 54.7439 42.3093 54.2495 42.12C53.8053 41.9495 53.2242 41.7965 52.587 41.6822C51.8411 41.5657 51.7721 41.4288 52.1886 41.3233C52.6051 41.2178 53.3027 41.082 53.9219 40.9711C54.1374 40.9334 54.2709 40.8721 54.3075 40.794C54.3442 40.716 54.2826 40.6242 54.1296 40.5289C54.0314 40.3659 54.0143 40.2112 54.079 40.0686C54.1135 40.0093 54.0897 39.9413 54.0091 39.8693C53.9285 39.7972 53.793 39.7227 53.6118 39.6508C53.4306 39.5789 53.2079 39.5113 52.9587 39.4525C52.7094 39.3937 52.4394 39.3451 52.1669 39.3099C51.017 39.1303 49.8982 38.9554 48.7256 38.8241C48.2342 38.7622 47.7433 38.6855 47.2649 38.5959C46.2857 38.3742 45.2382 38.1903 44.1831 38.055C43.6823 37.9945 43.1927 37.8887 42.8203 37.7605C41.6456 37.4151 40.5632 37.052 39.5926 36.6776C39.3587 36.5615 39.0527 36.4483 38.6936 36.3449C38.3346 36.2416 37.9303 36.1505 37.5062 36.0772C37.1644 36.0238 36.8861 35.9061 36.6226 35.8279C36.4311 35.6466 36.4107 35.479 36.5632 35.3407C36.7157 35.2023 37.0362 35.0978 37.4945 35.037C37.9291 34.964 38.3358 34.8792 38.7115 34.7896C39.1644 34.7171 39.7028 34.6736 40.3067 34.6606C41.022 34.6217 41.5508 34.5105 41.8244 34.3414C39.8665 34.0355 38.0045 33.5962 36.2883 33.6989L34.9844 33.421C35.0363 33.3104 35.0817 33.2137 35.1239 33.1239C35.4341 32.9604 35.5309 32.7542 35.4063 32.5227C35.3036 32.4108 35.3129 32.3089 35.4332 32.2274C35.5535 32.1459 35.7805 32.0877 36.0914 32.0587C37.9328 31.7605 40.0623 31.5592 41.7891 31.2208C42.3306 31.1573 42.9644 31.1285 43.6639 31.1355C44.3407 31.1152 44.3123 30.9624 43.5335 30.774C43.0964 30.6755 42.6508 30.5811 42.1985 30.4912C40.204 30.4762 39.3915 30.9278 37.1154 30.802L36.0605 30.207C35.7752 30.1978 35.4983 30.1942 35.2316 30.1962L31.4152 30.438C31.0973 30.4501 30.8498 30.4914 30.7009 30.5573C30.552 30.6232 30.5077 30.711 30.5728 30.8107C30.5987 30.9327 30.5461 31.0446 30.417 31.1424C30.3338 31.2108 30.3871 31.3018 30.5651 31.3954C30.9663 31.6064 30.4515 31.6373 30.1264 31.6903C30.0432 31.6955 29.9474 31.6949 29.8444 31.6887C29.7414 31.6824 29.6333 31.6706 29.5263 31.6539C29.4194 31.6372 29.3157 31.6159 29.2213 31.5913C29.1269 31.5667 29.0437 31.5393 28.9765 31.5106C28.4036 31.3098 27.9026 31.098 27.3394 30.8765C27.7392 30.6646 27.2688 30.3167 27.8927 30.1249C27.9625 30.0866 27.9904 30.0399 27.9747 29.9877C27.9591 29.9355 27.9002 29.8789 27.8017 29.8214C27.5477 29.6729 27.4267 29.5282 27.4509 29.4017C27.4752 29.2753 27.6438 29.1717 27.9398 29.1013L27.9755 29.0253C27.1948 28.7698 27.4017 28.5425 27.0951 28.2721L26.3441 28.0954C24.4757 27.67 24.4724 27.6769 22.8638 27.6926C22.5395 27.5306 22.9515 27.506 23.2604 27.4875L25.8477 27.3059C27.5393 27.1845 29.2801 27.1005 31.1698 27.0546C33.0595 27.0087 35.1662 26.8558 37.1194 26.7456C37.2182 26.7371 37.2937 26.7202 37.3397 26.6965C37.3857 26.6727 37.4008 26.6427 37.3838 26.6089C37.3061 26.5725 37.2045 26.5373 37.0864 26.506C36.9683 26.4747 36.8367 26.4481 36.7014 26.4281C36.0799 26.331 35.4421 26.2685 34.7797 26.1872L33.5449 26.0462L33.165 25.8607C32.9178 25.7479 32.7489 25.6103 32.42 25.5292C32.149 25.4688 31.8548 25.4229 31.568 25.3963C31.2813 25.3698 31.0125 25.3636 30.7896 25.3783C30.1718 25.4153 29.6129 25.4689 29.0229 25.5176C28.4329 25.5663 28.1077 25.6194 27.5961 25.6432C26.5566 25.6541 25.552 25.6828 24.5867 25.7293C23.7737 25.8392 23.0216 25.9694 22.3353 26.1192C21.9072 26.1784 21.5069 26.2493 20.7758 26.1722C20.429 26.1022 20.1299 26.0103 19.9314 25.9128C19.733 25.8153 19.6481 25.7184 19.6918 25.6394C19.731 25.5774 19.842 25.5284 20.0144 25.4969C20.1868 25.4655 20.4148 25.4526 20.6769 25.4595C21.4107 25.4481 22.0892 25.4098 22.6989 25.3453C23.5474 25.2284 24.5803 25.178 25.7374 25.1971C26.1298 25.2139 26.3929 25.1511 26.7361 25.1306C27.0793 25.1101 27.3701 25.0591 27.7528 25.0966C28.9416 25.1934 29.5117 25.0451 30.2241 24.9488C30.4653 24.9061 30.6147 24.837 30.6559 24.7492C30.6972 24.6615 30.6286 24.5584 30.4578 24.4513C30.129 24.238 29.7268 24.0235 29.2574 23.8113C29.0158 23.7069 28.7063 23.6078 28.3531 23.5218C28 23.4357 27.6128 23.365 27.2219 23.3152C26.9879 23.1846 26.8632 23.0562 26.8588 22.9415C26.8544 22.8269 26.9706 22.7296 27.1968 22.6586C27.7733 22.4965 28.2845 22.3316 29.5763 22.4222C30.1836 22.4568 30.7552 22.4634 31.2683 22.4419C32.4064 22.4123 33.7192 22.477 35.083 22.63C35.4359 22.6692 35.7827 22.6959 36.1132 22.7094C38.471 22.8034 40.7173 22.8503 42.9702 22.8834C44.1637 22.8993 45.3669 22.8944 46.6128 22.9408C49.5345 23.0413 52.1942 22.9896 55.0144 23.0224C56.4914 23.0392 57.8134 22.9715 58.9111 22.8228C59.1249 22.773 59.3085 22.7148 59.4598 22.649C58.7323 22.4762 57.9333 22.3394 57.1392 22.2517C56.3452 22.164 55.5826 22.1283 54.9247 22.148C54.5631 22.1964 54.0955 22.2052 53.5744 22.1735C53.0533 22.1419 52.499 22.071 51.9733 21.9687V21.9687L53.5017 21.9108C54.5151 21.8838 55.5532 21.8754 56.5389 21.8365C58.1048 21.7697 59.5561 21.6627 61.1777 21.6194C62.4869 21.5796 63.6584 21.4778 64.6555 21.3173C65.3759 21.2003 66.1986 21.1172 67.1069 21.0699C67.7526 21.0447 67.7526 21.0447 68.1654 20.8052C67.8379 20.6501 67.4144 20.6285 67.0155 20.6255C64.6239 20.528 62.348 20.5109 60.2341 20.5745C59.1675 20.5802 58.2213 20.6459 57.4409 20.7685C57.2498 20.8203 56.7609 20.7958 56.3684 20.779C55.1383 20.7534 53.9626 20.7608 52.8553 20.8011C51.3245 20.8683 49.6196 20.8524 47.8068 20.754C47.4631 20.6335 47.8587 20.6434 47.8782 20.6019C49.2823 20.5247 50.6585 20.4356 52.0904 20.3701C52.4818 20.3467 52.9002 20.3352 53.3409 20.3356C54.9861 20.3762 56.357 20.2636 57.2617 20.0137C57.3071 19.9169 57.9023 19.9283 58.1652 19.8656C58.2946 19.8113 58.3808 19.7474 58.4212 19.6757C58.0381 19.4971 57.6048 19.4962 57.2713 19.496C56.3036 19.5159 55.3726 19.5537 54.4828 19.6091C53.6557 19.6619 52.7401 19.676 51.7609 19.6511C51.0382 19.6272 50.4204 19.6641 49.6913 19.654C49.2957 19.6328 48.8863 19.5987 48.4713 19.5524C48.9334 19.428 49.5614 19.3514 50.3114 19.3282C50.8801 19.2539 51.5911 19.2315 51.682 19.038C51.4134 18.8996 51.1142 18.8973 50.8739 18.9117C50.3738 18.9112 49.8907 18.9199 49.4272 18.9378C48.4444 18.9772 47.3803 18.9777 46.2573 18.9395C45.666 18.9252 45.1048 18.9295 44.5833 18.9523C43.4014 18.9827 42.2687 19.0505 41.1866 19.0817C38.9699 19.1136 36.9481 19.2278 34.8182 19.2881C34.3441 19.303 33.9192 19.3553 33.2944 19.2651C32.6696 19.1749 32.6418 19.1631 32.568 19.1071C32.3932 19.0136 32.3402 18.923 32.42 18.854C32.544 18.7896 32.7854 18.7538 33.1013 18.7528C35.0054 18.6503 36.8113 18.5064 38.5079 18.3219C39.2545 18.285 39.9087 18.2096 40.4476 18.0984C40.875 18.0218 41.382 17.9711 41.9527 17.9479C42.7828 17.8926 43.6481 17.852 44.5452 17.8264C44.9626 17.8126 45.3175 17.7716 45.589 17.7058C45.8606 17.6399 46.0433 17.5506 46.1263 17.443L45.0265 17.0858C44.8538 17.0691 44.6824 17.0547 44.5131 17.0426L35.3851 17.3L34.4811 17.307C33.4903 17.2857 33.2482 17.2331 32.3084 16.8192C34.4532 16.7218 36.1393 16.438 37.1986 15.9961C36.944 15.9486 36.683 15.9078 36.4216 15.8747C34.7076 15.7702 33.0873 15.7424 31.6231 15.7924C30.7534 15.7975 29.8592 15.7838 28.9616 15.7771C29.2241 15.5733 30.2297 15.634 30.8851 15.5881C32.4511 15.5162 33.8359 15.3678 34.9952 15.1475C35.3949 15.0616 35.895 15.0066 36.4725 14.9852C37.0504 14.9778 37.5332 14.9258 37.8788 14.8338C38.2244 14.7417 38.4223 14.6123 38.4553 14.4569C38.5097 14.3162 38.6271 14.1855 38.8055 14.0666C38.4898 13.898 37.9885 13.7365 37.3958 13.6125C36.803 13.4885 36.1594 13.4104 35.5859 13.393C34.3615 13.3235 33.0915 13.2099 31.8083 13.0549C31.1691 12.9767 30.5423 12.9318 29.9687 12.9232C29.4628 12.9165 28.8878 12.8601 28.3313 12.7624C27.7749 12.6647 27.2676 12.5312 26.8868 12.3823C26.3729 12.1981 25.8932 12.0119 25.4135 11.8257C24.9339 11.6395 24.3773 11.4042 23.8174 11.1758C23.3238 11.1401 22.843 11.1171 22.3818 11.1072C22.023 11.1156 21.6042 11.0907 21.175 11.0355C20.7458 10.9802 20.324 10.897 19.9595 10.7955V10.7955C20.1733 10.6954 20.415 10.6071 20.6697 10.4911C20.3201 10.338 20.0667 10.1818 19.9248 10.0321C19.783 9.88245 19.7556 9.74238 19.8444 9.62047C19.8963 9.50992 19.5164 9.32446 19.3851 9.17786C19.2161 9.05148 19.1843 8.93354 19.294 8.8395C19.4036 8.74545 19.6496 8.67971 19.9996 8.65087C20.4338 8.59765 20.7871 8.51751 21.0451 8.41372C21.1304 8.38678 21.1739 8.34988 21.1714 8.3064C21.169 8.26292 21.1208 8.21425 21.0312 8.16484C20.9416 8.11542 20.8134 8.06684 20.6585 8.02353C20.5035 7.98023 20.3267 7.94358 20.1442 7.91695C19.5852 7.84144 19.03 7.79249 18.5105 7.77293C17.6156 7.73693 16.7589 7.71432 15.9404 7.70509C15.0351 7.6912 14.0281 7.60549 13.0214 7.45665C12.1201 7.31582 11.3121 7.18956 10.8714 6.92044C10.4307 6.65133 9.7261 6.65991 9.1843 6.46399C9.48865 6.28739 10.0296 6.1647 10.7525 6.10827C11.2256 6.08813 11.6205 6.03527 11.9119 5.95307C12.2033 5.87087 12.3847 5.76116 12.4446 5.63097L10.7997 5.08469C9.48605 4.82751 8.75925 5.02545 7.33988 4.92234L8.80235 4.72068C8.83173 4.70074 8.84273 4.67734 8.83481 4.65158C8.69282 4.24371 8.4669 4.15649 6.97191 3.93031L6.13283 3.7992L4.80479 3.6436C4.59209 3.56002 4.44501 3.47285 4.37817 3.39082C4.31132 3.30879 4.32709 3.23477 4.42392 3.17617C4.61849 3.07761 4.67765 2.95167 4.59596 2.80995C4.46715 2.71606 4.45653 2.62952 4.5659 2.56532C4.67528 2.50112 4.89776 2.46333 5.19474 2.4585C5.43176 2.45103 5.44936 2.34253 5.5783 2.28109C5.70642 2.19641 5.9257 2.13143 6.22121 2.09058C6.51671 2.04972 6.88144 2.03393 7.29071 2.04432C8.49735 2.05279 9.63089 2.02101 10.6712 1.94952L10.4847 1.92038C11.569 1.98314 12.5827 1.99075 13.4765 1.94285C14.3722 1.88254 15.5216 1.92123 16.4729 1.88446C17.2474 1.89289 17.8371 1.80943 18.1167 1.6518C18.3876 1.50128 19.3719 1.53641 20.1256 1.56518C20.5721 1.58379 21.0037 1.59168 21.4156 1.58874C21.9686 1.55468 22.6599 1.58679 23.3744 1.67973C23.5888 1.7083 23.8 1.72342 23.9877 1.72363C25.8041 1.7627 27.6172 1.80867 29.409 1.82906C29.8226 1.81731 30.3076 1.8442 30.807 1.90658C31.017 1.93366 31.2213 1.94488 31.3925 1.93872C34.2238 1.87678 37.4187 2.03483 40.1943 1.94935C40.5307 1.92916 40.9032 1.92497 41.3011 1.93687C42.1952 1.98708 42.9717 1.95476 43.5126 1.84484C43.8045 1.78637 44.1787 1.75415 44.6113 1.75023C45.0439 1.74632 45.5254 1.7708 46.0253 1.8221C46.857 1.89004 47.6257 1.8974 48.2503 1.84343C49.468 1.79356 50.7487 1.77305 52.0821 1.78207C52.4907 1.7908 52.8498 1.77142 53.1317 1.72543C53.4137 1.67945 53.6107 1.6081 53.7078 1.51691C53.3803 1.3619 53.0222 1.34304 52.6822 1.35666C51.3645 1.32134 50.0499 1.27911 48.7567 1.26246C47.5992 1.21491 46.4886 1.20038 45.4412 1.21907C44.9211 1.24016 44.2721 1.19208 43.6359 1.08532C42.8561 0.950124 42.053 0.882952 41.389 0.897401C40.8966 0.900989 40.3769 0.889345 39.8374 0.862636C39.4921 0.830428 39.1381 0.77512 38.8119 0.702391C38.6824 0.670802 38.5415 0.644239 38.3981 0.624409C38.2548 0.604578 38.1122 0.591922 37.9795 0.587227C37.8467 0.582532 37.7265 0.585901 37.6269 0.597141C37.5273 0.608382 37.4504 0.627243 37.4009 0.652504C36.9013 0.863709 35.7844 0.755926 34.8279 0.732564C33.3946 0.375095 32.3278 0.586674 30.9882 0.384771C30.8823 0.371387 30.7779 0.363276 30.6815 0.360962C30.5851 0.358649 30.4987 0.362174 30.4274 0.371307C27.835 0.49283 24.8136 0.391555 22.0917 0.433521C21.7916 0.439656 21.4431 0.418624 21.0861 0.372812C18.7528 0.0695945 16.5094 -0.0164894 14.7945 0.131401C14.5858 0.144718 14.3485 0.145287 14.0932 0.133073C12.9207 0.0125644 11.7995 -0.0354813 10.8231 -0.0070539C9.29287 -0.0162346 7.82158 -0.00879215 6.26678 -0.0366483C5.195 -0.0762823 4.25477 -0.033937 3.54028 0.0861699C3.51756 0.134538 3.04162 0.0824192 2.67704 0.0773698C2.46736 -0.0443955 2.28558 -0.154382 2.06941 -0.262328C1.87618 -0.395874 1.5867 -0.531019 1.22072 -0.658588C0.854729 -0.786157 0.42081 -0.903166 -0.0518131 -1.00171C-0.859845 -1.12797 -0.940655 -1.31119 -0.375241 -1.37859C1.08211 -1.6016 2.91466 -1.69288 4.98768 -1.64572C6.7206 -1.64195 8.48464 -1.63332 10.2421 -1.61088C11.2672 -1.59162 12.3479 -1.54885 13.3452 -1.54136C13.6817 -1.52491 14.0274 -1.50066 14.3786 -1.46887C14.8097 -1.42279 15.2281 -1.39768 15.6116 -1.3949C16.8427 -1.43371 18.2167 -1.3999 19.6679 -1.29509C20.1995 -1.27223 20.7099 -1.26453 21.1916 -1.27209C22.3312 -1.30054 23.5666 -1.27961 24.8652 -1.20984C25.6723 -1.1705 26.4549 -1.14992 27.2049 -1.14834C27.4698 -1.14404 27.6854 -1.17709 27.9406 -1.15206C30.1861 -0.890195 31.7761 -1.07934 33.7971 -0.978645C34.7793 -0.950567 35.7177 -0.950488 36.5991 -0.978405C38.3192 -0.977055 40.0873 -0.948345 41.8962 -0.892393C44.2883 -0.800466 46.5049 -0.832363 48.7889 -0.794408C49.2398 -0.786434 49.6752 -0.78779 50.0919 -0.798483C52.1188 -0.869123 54.3203 -0.854143 56.6427 -0.753908C57.1701 -0.739426 57.6437 -0.757135 58.034 -0.805908C58.4243 -0.85468 58.7228 -0.933475 58.9108 -1.03736C58.9904 -1.10866 58.9388 -1.20126 58.7661 -1.29731C58.4794 -1.41998 58.1557 -1.54016 57.8003 -1.65589L44.8725 -2.04422C44.3295 -2.0645 43.8 -2.07541 43.2866 -2.07692C41.7768 -2.0803 40.2205 -2.11051 38.6255 -2.1674C37.0493 -2.22084 35.5437 -2.21136 34.0167 -2.22745C33.5669 -2.23284 33.1052 -2.24555 32.6336 -2.26556C29.4453 -2.42392 26.3364 -2.52064 23.3288 -2.55503C22.0634 -2.55991 20.6965 -2.63258 19.4065 -2.65614C18.1166 -2.6797 16.3526 -2.68832 14.8223 -2.6975L10.0847 -2.69609C9.15285 -2.70078 8.24555 -2.68679 7.34152 -2.67972C6.24446 -3.1849 5.86642 -3.30331 4.4025 -3.52463C3.90168 -3.60628 3.39226 -3.655 2.93398 -3.66509C1.48077 -3.62516 -0.342634 -3.7914 -1.72071 -3.76939C-2.55225 -3.78025 -3.25786 -3.72413 -3.76528 -3.60677C-4.20577 -3.51467 -4.70947 -3.4418 -5.26861 -3.38924C-6.80028 -3.82141 -6.93526 -4.1021 -5.78309 -4.21132C-5.47093 -4.23672 -5.04095 -4.22886 -4.81554 -4.28264C-4.68619 -4.31539 -4.5095 -4.33413 -4.29954 -4.33736C-4.08958 -4.3406 -3.85215 -4.32826 -3.60588 -4.3013C-2.82865 -4.23058 -2.10015 -4.21394 -1.49349 -4.25307C-0.922557 -4.30486 -0.222721 -4.30279 0.538555 -4.24706C1.09796 -4.15965 1.58965 -4.28308 2.07344 -4.31874C2.55722 -4.3544 2.95423 -4.41845 3.70984 -4.32264C3.84821 -4.30356 3.98558 -4.2921 4.11141 -4.28916C4.23725 -4.28621 4.3482 -4.29184 4.43576 -4.30563C5.24731 -4.36734 6.21575 -4.36085 7.26244 -4.28671C8.86776 -4.21374 10.374 -4.21101 11.7288 -4.27859C12.5398 -4.33773 13.2312 -4.4426 13.7761 -4.58911C13.9247 -4.63811 14.1452 -4.6675 14.4167 -4.67445C15.7798 -4.64388 17.2599 -4.52882 18.7615 -4.33671C19.3273 -4.25974 19.8922 -4.19885 20.4444 -4.15535C21.5793 -4.05871 22.6769 -4.00456 23.7048 -3.99449C25.1984 -3.9929 26.7535 -3.95571 28.3562 -3.88328C29.3453 -3.84295 30.2984 -3.82807 31.2041 -3.83879C32.1351 -3.84384 33.1291 -3.81308 34.1636 -3.74721C35.1923 -3.69354 36.0989 -3.72446 36.774 -3.83625C36.9963 -3.89648 37.1754 -3.96801 37.3079 -4.0495C35.8016 -4.31466 34.2438 -4.44942 32.9481 -4.42664C32.456 -4.44421 32.0473 -4.42647 31.5287 -4.52976L31.5125 -4.49521C31.4093 -4.47279 31.2536 -4.4675 31.0751 -4.48035C30.8966 -4.4932 30.7077 -4.52329 30.5445 -4.56488V-4.56488C30.6062 -4.69616 30.6646 -4.82054 30.7068 -4.91037C31.694 -4.89452 32.6526 -4.8958 33.5776 -4.91422C34.3573 -4.94073 35.4158 -4.70858 36.0906 -4.79597C37.407 -4.68669 38.2452 -4.83757 39.4257 -4.79403C40.6061 -4.7505 41.9063 -4.60667 43.0868 -4.56314C44.1169 -4.53924 45.1171 -4.53405 46.0818 -4.54758C46.4148 -4.56657 46.7987 -4.56212 47.2099 -4.53449C47.7879 -4.48251 48.3256 -4.4738 48.7612 -4.50936C49.1968 -4.54492 49.5127 -4.62333 49.6728 -4.73558C49.5221 -4.84072 49.3189 -4.97629 49.0847 -5.11673C49.5156 -5.23213 50.1701 -5.28072 50.9511 -5.25528L52.0546 -5.26085C52.3471 -5.2578 52.5706 -5.289 52.679 -5.34799C52.7874 -5.40697 52.7725 -5.48923 52.6372 -5.57775C50.5447 -6.02338 50.4677 -6.0725 48.9319 -5.78587L46.8929 -5.91907L46.9272 -5.92111ZM74.5074 -4.69699L74.3521 -4.72126L74.5074 -4.69699ZM328.617 42.7151L328.582 42.7911L328.621 42.7082L328.962 42.7616L328.985 42.7133L328.617 42.7151ZM278.983 9.40087C278.5 9.31795 278.012 9.24172 277.522 9.17264C277.394 9.16192 277.274 9.1595 277.172 9.16558C277.071 9.17166 276.99 9.18605 276.938 9.20754C276.9 9.29046 277.173 9.34799 277.421 9.38684C277.735 9.43912 278.055 9.47235 278.349 9.48309C278.643 9.49383 278.9 9.4817 279.094 9.44794L279.375 9.41769L278.983 9.40087ZM30.1028 29.6099C30.4209 29.6238 30.7226 29.6261 31.0004 29.6166C32.2328 29.5496 33.4127 29.4521 34.6762 29.39C36.2704 29.2322 38.1024 29.1679 40.1032 29.1996C40.8849 29.2151 41.5453 29.1639 42.0073 29.0521C42.2839 28.9921 42.6409 28.957 43.0564 28.949L48.3461 28.7669C48.673 28.7291 48.9557 28.6761 49.1875 28.6091C48.7213 28.5362 48.4105 28.4877 48.2241 28.4585C47.8372 28.4504 47.5046 28.4726 47.2598 28.523C46.9967 28.6084 46.5522 28.6421 46.0143 28.6176C45.4713 28.5973 44.9418 28.5864 44.4285 28.5849C43.4591 28.5892 42.4831 28.6073 41.5104 28.6185C41.1319 28.856 40.015 28.7482 39.0585 28.7248L38.3196 28.7355C35.9043 28.8586 33.5972 29.028 31.4094 29.2429C30.9865 29.2793 30.6223 29.3373 30.3278 29.4151C30.2168 29.4758 30.1813 29.5515 30.2239 29.6362L30.0685 29.6119L30.1028 29.6099ZM137.959 52.3223C138.545 52.3385 139.155 52.3717 139.781 52.4215C140.263 52.4724 140.733 52.5032 141.172 52.5129C143.636 52.5661 146.203 52.6891 148.839 52.8802C149.184 52.9091 149.515 52.9233 149.82 52.9222L151.978 52.8737C152.658 52.8464 152.671 52.8188 152.176 52.4522C151.765 52.3811 151.35 52.3162 150.933 52.258C150.684 52.2191 150.28 52.156 150.186 52.2154C149.609 52.3775 148.558 52.2725 147.673 52.2381C145.113 52.1495 142.472 52.0188 139.887 51.9115C139.34 51.8853 138.811 51.872 138.304 51.8719C137.99 51.8664 137.703 51.8767 137.456 51.9025C137.384 51.9051 137.323 51.9128 137.279 51.925C137.234 51.9372 137.206 51.9537 137.197 51.9733C137.187 51.9929 137.197 52.0152 137.225 52.0387C137.253 52.0623 137.298 52.0865 137.358 52.1098C137.57 52.1914 137.814 52.2696 138.083 52.3418L137.959 52.3223ZM156.716 -0.885301L159.238 -0.928765C159.54 -0.933428 159.797 -0.982349 160.121 -0.961427C161.848 -0.89512 163.447 -0.913588 164.85 -1.01605C165.328 -1.05786 165.887 -1.06622 166.496 -1.04067C168.362 -0.964954 170.122 -0.961838 171.729 -1.03142C172.768 -1.04538 173.74 -1.09228 174.631 -1.17142C174.699 -1.18979 174.742 -1.21473 174.756 -1.24454C174.77 -1.27435 174.755 -1.30833 174.712 -1.34416C174.701 -1.3668 174.67 -1.39115 174.622 -1.41553C174.575 -1.43992 174.511 -1.46377 174.435 -1.48542C174.36 -1.50708 174.275 -1.52603 174.185 -1.54098C174.096 -1.55593 174.005 -1.56653 173.918 -1.57202C172.793 -1.67915 171.724 -1.71646 170.8 -1.68095C169.943 -1.63846 169.021 -1.62602 168.047 -1.64384C167.115 -1.64853 166.483 -1.50997 165.332 -1.6157C164.845 -1.65051 164.415 -1.63905 164.116 -1.58323C163.513 -1.49071 162.671 -1.48557 161.74 -1.56871C161.184 -1.61079 160.651 -1.62883 160.164 -1.62216C158.982 -1.59174 157.853 -1.53088 156.758 -1.47208C156.413 -1.45847 156.043 -1.4566 155.654 -1.46649L150.171 -1.58163C148.853 -1.61696 147.538 -1.65919 146.245 -1.67583C145.188 -1.71198 144.203 -1.70066 143.327 -1.64227C142.393 -1.58091 141.374 -1.55599 140.29 -1.568C138.606 -1.53442 136.932 -1.52158 135.1 -1.5261C133.931 -1.52332 132.734 -1.5323 131.513 -1.55996C130.895 -1.59556 130.37 -1.56657 130.04 -1.47856C129.839 -1.40611 129.367 -1.46513 128.974 -1.48195C126.881 -1.64402 124.918 -1.68242 123.222 -1.59448C123.006 -1.58015 122.768 -1.57496 122.515 -1.57901C120.881 -1.58203 119.189 -1.60167 117.622 -1.60188C117.209 -1.59505 116.82 -1.5763 116.461 -1.54588C116.499 -1.49624 116.609 -1.44244 116.767 -1.39563C116.925 -1.34883 117.12 -1.31261 117.31 -1.29449C118.793 -1.15581 120.225 -1.08255 121.545 -1.07779C123.743 -1.09545 126.046 -1.05573 128.428 -0.959057C130.277 -0.861591 131.963 -0.882111 133.36 -1.01909C134.453 -1.1213 135.873 -1.08285 137.379 -0.910326C138.023 -0.827932 138.649 -0.794986 139.169 -0.815988C139.671 -0.843542 140.246 -0.836859 140.862 -0.79634C142.159 -0.719291 143.407 -0.683548 144.581 -0.689817C145.729 -0.718181 146.799 -0.795663 147.978 -0.819171C149.156 -0.842678 150.951 -0.829208 152.405 -0.869145C153.858 -0.909081 155.295 -0.914462 156.716 -0.885301ZM52.198 -4.92694C52.3311 -4.71329 52.8025 -4.58031 53.3095 -4.52334C55.0574 -4.27038 56.7854 -4.16274 58.2034 -4.21848C58.9694 -4.29623 59.9906 -4.2663 61.0663 -4.13458C62.3188 -3.99765 63.4895 -3.97494 64.3721 -4.07045C64.5883 -4.08714 64.7539 -4.12243 64.854 -4.17316C64.8735 -4.21462 64.9092 -4.29062 64.9157 -4.30444C64.8229 -4.33949 64.7092 -4.37196 64.5833 -4.39935C64.4573 -4.42675 64.3226 -4.44833 64.1893 -4.46244L58.3996 -4.70701L57.3907 -4.76082C55.5479 -4.90182 53.7919 -4.95799 52.198 -4.92694V-4.92694ZM63.5863 -1.54541C64.4899 -1.19654 64.4931 -1.20346 64.956 -1.12371C67.1894 -0.792449 69.4211 -0.61363 71.3859 -0.608528C71.8225 -0.60954 72.1932 -0.643214 72.4662 -0.706725C72.6068 -0.715332 72.6962 -0.742681 72.7151 -0.782807C72.7339 -0.822933 72.6806 -0.872582 72.5669 -0.920926L71.8483 -1.1667C70.5434 -1.27311 69.2572 -1.35765 67.9975 -1.41983C66.5308 -1.49325 65.231 -1.49608 63.7106 -1.52599L63.5863 -1.54541ZM137.851 50.7775C138.693 51.2577 138.696 51.2508 140.106 51.3746C141.088 51.4624 142.041 51.5139 142.936 51.5276C144.03 51.5428 145.151 51.5697 146.242 51.5917C146.508 51.607 146.734 51.5943 146.875 51.5561C147.016 51.5179 147.063 51.4568 147.006 51.3848C146.863 51.3067 146.639 51.2311 146.371 51.1703C146.103 51.1096 145.806 51.0672 145.529 51.0501L144.934 51.0387C144.211 51.0148 143.461 50.9791 142.763 50.9739C142.31 50.9938 141.785 50.9784 141.229 50.9289C140.674 50.8794 140.103 50.7972 139.561 50.6887L137.851 50.7775ZM68.0824 -4.29914C68.3072 -4.21599 68.5614 -4.13635 68.8384 -4.06234C69.9108 -3.8572 71.0458 -3.74069 72.0209 -3.73565C72.4819 -3.72294 72.9036 -3.76831 73.373 -3.70238C74.2149 -3.61428 75.0308 -3.56735 75.7767 -3.56413C75.7767 -3.56413 75.9859 -3.58337 76.0545 -3.58747L76.1973 -3.8915C75.8442 -3.96193 75.476 -4.01947 75.1096 -4.06147C73.8799 -4.14235 72.6716 -4.19765 71.4665 -4.25986C70.2615 -4.32208 69.8413 -4.35065 69.0532 -4.37737C68.7016 -4.36269 68.3765 -4.33648 68.0824 -4.29914ZM41.4536 33.4973L43.0628 34.1196C43.5835 34.1737 44.07 34.1835 44.4482 34.1475C44.8264 34.1115 45.0756 34.0318 45.1579 33.9204C45.2904 33.8682 45.3037 33.791 45.1949 33.7049C45.0861 33.6187 44.8637 33.5304 44.5743 33.4583C44.2958 33.3729 43.9779 33.2964 43.6402 33.2334C43.3026 33.1705 42.9524 33.1224 42.6113 33.0923L41.4536 33.4973ZM54.8517 30.399C53.7992 30.2935 52.7925 30.2504 51.9086 30.2729C51.3517 30.3346 50.5971 30.3149 49.7995 30.2178C48.3491 30.0242 46.9509 29.9706 45.9 30.0683C45.9 30.0683 45.861 30.1512 45.6829 30.1753C45.5048 30.1994 46.2112 30.2578 46.3666 30.2821C47.5063 30.3415 48.6524 30.3871 49.6432 30.4084C50.2583 30.4075 50.909 30.4271 51.5839 30.4669C52.5126 30.5283 53.3933 30.5482 54.1917 30.5258C54.1917 30.5258 54.5006 30.5073 54.8484 30.4059L54.8517 30.399ZM167.253 -2.0127C166.75 -2.12989 166.205 -2.22514 165.659 -2.29129C165.112 -2.35744 164.578 -2.39278 164.097 -2.39466C163.728 -2.40078 163.43 -2.36983 163.249 -2.30673C163.068 -2.24362 163.016 -2.15194 163.099 -2.0462C163.472 -1.98793 163.969 -1.91023 164.249 -1.86653C165.218 -1.87081 166.045 -1.927 167.253 -2.0127ZM261.357 7.8632C260.954 7.76886 260.51 7.69673 260.075 7.65504C259.641 7.61336 259.233 7.60381 258.9 7.62748C258.728 7.63775 258.844 7.74494 258.815 7.80713C258.796 7.82123 258.796 7.83876 258.816 7.8579C258.835 7.87704 258.873 7.89708 258.926 7.9159C258.978 7.93473 259.044 7.95166 259.115 7.96492C259.185 7.97818 259.26 7.98728 259.329 7.99127C259.767 8.03191 260.18 8.04401 260.531 8.02648C260.883 8.00896 261.162 7.96236 261.344 7.89084L261.357 7.8632ZM267.663 9.21184C267.6 9.15617 267.467 9.09816 267.289 9.04841C267.11 8.99867 266.897 8.96055 266.689 8.94104C266.322 8.93842 265.988 8.95386 265.7 8.98677C265.388 9.01216 265.612 9.17334 266.035 9.26896C266.213 9.30735 266.404 9.33729 266.592 9.3564C266.78 9.37552 266.96 9.38328 267.118 9.37908C267.275 9.37487 267.406 9.35881 267.499 9.33218C267.593 9.30555 267.646 9.26908 267.656 9.22566L267.663 9.21184ZM84.4505 -3.70702C83.5098 -3.90592 82.7858 -3.85588 81.9894 -3.93583C81.1929 -4.01577 80.9967 -4.02418 81.1034 -3.89626C81.2101 -3.76833 81.7561 -3.79428 82.0979 -3.74086C82.5598 -3.66998 83.0245 -3.62928 83.44 -3.6233C83.8554 -3.61732 84.2053 -3.64631 84.4505 -3.70702V-3.70702ZM280.472 29.9485C279.974 29.9039 279.486 29.8723 279.015 29.8543C278.954 29.8729 278.915 29.8971 278.901 29.9255C278.888 29.954 278.9 29.9862 278.938 30.0202C278.938 30.0202 279.257 30.122 279.443 30.1511C280.13 30.251 280.164 30.108 280.472 29.9485V29.9485ZM350.895 48.4805C351.232 48.6148 351.39 48.7061 351.66 48.7706C351.784 48.7929 351.912 48.8092 352.035 48.8181C352.157 48.8271 352.272 48.8284 352.369 48.8221C352.488 48.7834 352.516 48.7242 352.447 48.6563C352.447 48.6563 352.103 48.5359 351.973 48.5303C351.599 48.5018 351.238 48.4851 350.895 48.4805V48.4805ZM68.4385 -4.84426C67.7237 -4.95595 67.04 -5.0628 66.5451 -4.93245C67.6801 -4.79218 67.6802 -4.79217 68.4385 -4.84426ZM80.0157 -3.56928C79.294 -3.80815 78.8704 -3.82983 78.5239 -3.80238C78.4503 -3.79547 78.4016 -3.78006 78.3851 -3.7585C78.3687 -3.73693 78.3854 -3.71039 78.4328 -3.68287C78.4802 -3.65535 78.5556 -3.62837 78.6477 -3.60599C78.7398 -3.58361 78.8436 -3.56706 78.9433 -3.55885C79.3197 -3.55197 79.6787 -3.55546 80.0157 -3.56928V-3.56928ZM117.164 -3.46827C117.18 -3.50282 117.2 -3.54428 117.013 -3.57342C116.964 -3.58821 116.907 -3.60093 116.847 -3.6103C116.787 -3.61968 116.726 -3.62538 116.671 -3.62683C116.671 -3.62683 116.652 -3.58537 116.639 -3.55773L117.164 -3.46827ZM142.961 53.89L142.545 53.9216L142.732 53.9507L143.224 53.9683L142.961 53.89ZM289.132 8.67275C288.977 8.64846 288.822 8.62418 288.799 8.67255C288.766 8.68004 288.746 8.69085 288.74 8.70408C288.733 8.7173 288.741 8.73255 288.763 8.74856C288.763 8.74856 288.981 8.78255 289.074 8.79712L289.132 8.67275ZM264.932 9.05959C264.83 9.05681 264.737 9.06006 264.661 9.06911C264.661 9.06911 264.641 9.11057 264.641 9.11057L264.952 9.15914L264.932 9.05959ZM54.0309 18.9377C53.9109 18.9126 53.7836 18.8927 53.658 18.8795L53.5025 18.8552C53.5025 18.8552 53.6695 18.9258 53.7627 18.9404C53.856 18.9549 53.9312 18.937 54.0309 18.9377Z" fill="url(#paint0_linear_143_2)"/>
</g>
</g>
<g filter="url(#filter1_f_143_2)">
<circle cx="-53.5" cy="251.5" r="86.5" fill="#88D338" fill-opacity="0.27"/>
</g>
</g>
<defs>
<filter id="filter0_d_143_2" x="-23.5471" y="-16.334" width="403.551" height="107.341" filterUnits="userSpaceOnUse" color-interpolation-filters="sRGB">
<feFlood flood-opacity="0" result="BackgroundImageFix"/>
<feColorMatrix in="SourceAlpha" type="matrix" values="0 0 0 0 0 0 0 0 0 0 0 0 0 0 0 0 0 0 127 0" result="hardAlpha"/>
<feOffset dy="8"/>
<feGaussianBlur stdDeviation="8.5"/>
<feComposite in2="hardAlpha" operator="out"/>
<feColorMatrix type="matrix" values="0 0 0 0 0.384314 0 0 0 0 0.52549 0 0 0 0 0.266667 0 0 0 0.47 0"/>
<feBlend mode="normal" in2="BackgroundImageFix" result="effect1_dropShadow_143_2"/>
<feBlend mode="normal" in="SourceGraphic" in2="effect1_dropShadow_143_2" result="shape"/>
</filter>
<filter id="filter1_f_143_2" x="-390" y="-85" width="673" height="673" filterUnits="userSpaceOnUse" color-interpolation-filters="sRGB">
<feFlood flood-opacity="0" result="BackgroundImageFix"/>
<feBlend mode="normal" in="SourceGraphic" in2="BackgroundImageFix" result="shape"/>
<feGaussianBlur stdDeviation="125" result="effect1_foregroundBlur_143_2"/>
</filter>
<linearGradient id="paint0_linear_143_2" x1="147.884" y1="-15.0683" x2="160.417" y2="62.6654" gradientUnits="userSpaceOnUse">
<stop stop-color="#98BA53"/>
<stop offset="1" stop-color="#628644"/>
</linearGradient>
<clipPath id="clip0_143_2">
<rect width="1920" height="1348" fill="white" transform="translate(-248 -298)"/>
</clipPath>
</defs>
</svg>
