<svg width="108" height="108" viewBox="0 0 108 108" fill="none" xmlns="http://www.w3.org/2000/svg">
<g filter="url(#filter0_d_63_6141)">
<path d="M51.6875 21.4249H56.3125L54 14.6416L51.6875 21.4249Z" fill="url(#paint0_linear_63_6141)"/>
<path d="M71.7294 33.1417V6.16251C71.7294 3.85 69.8794 2 67.5669 2H40.4335C38.121 2 36.271 3.85 36.271 6.16251V33.1417C36.271 35.4542 38.121 37.3042 40.4335 37.3042H67.4127C69.7252 37.3042 71.7294 35.4542 71.7294 33.1417ZM61.7085 31.2917C61.5544 31.2917 61.4002 31.4459 61.0919 31.4459C60.4752 31.4459 59.7044 30.9834 59.5502 30.3667L57.546 24.8167H50.4543L48.4502 30.3667C48.1418 31.2917 47.2168 31.7542 46.2918 31.4459C45.3668 31.1375 44.9043 30.2125 45.2127 29.2875L52.4585 8.93751C52.7669 8.32084 53.3835 7.85834 54.0002 7.85834C54.6169 7.85834 55.3877 8.32084 55.5419 8.93751L62.6335 29.1334C62.9419 30.0584 62.4794 30.9834 61.7085 31.2917Z" fill="url(#paint1_linear_63_6141)"/>
<path d="M86.8375 40.6958H59.8583C57.5458 40.6958 55.6958 42.5458 55.6958 44.8583V71.8375C55.6958 74.15 57.5458 76 59.8583 76H86.8375C89.15 76 91 74.15 91 71.8375V44.8583C91 42.5458 89.15 40.6958 86.8375 40.6958ZM68.9542 64.2833C72.1917 67.5208 77.5875 67.5208 80.825 64.2833C81.4417 63.6667 82.5208 63.6667 83.1375 64.2833C83.7542 64.9 83.7542 65.9792 83.1375 66.5958C80.825 68.9083 77.8958 69.9875 74.8125 69.9875C71.7292 69.9875 68.8 68.9083 66.4875 66.5958C64.3291 64.4375 63.0958 61.3542 63.0958 58.2708C63.0958 55.1875 64.3291 52.1041 66.4875 49.9458C68.6458 47.7875 71.7292 46.5541 74.8125 46.5541C77.8958 46.5541 80.9792 47.7875 83.1375 49.9458C83.7542 50.5625 83.7542 51.6416 83.1375 52.2583C82.5208 52.875 81.4417 52.875 80.825 52.2583C79.2833 50.7166 77.125 49.7916 74.8125 49.7916C72.5 49.7916 70.4958 50.7166 68.8 52.2583C67.2583 53.8 66.3333 55.9583 66.3333 58.2708C66.4875 60.5833 67.2583 62.7417 68.9542 64.2833Z" fill="url(#paint2_linear_63_6141)"/>
<path d="M21.1625 76H48.1417C50.4542 76 52.3042 74.15 52.3042 71.8375V44.8583C52.3042 42.5458 50.4542 40.6958 48.1417 40.6958H21.1625C18.85 40.6958 17 42.5458 17 44.8583V71.8375C17 74.15 18.85 76 21.1625 76ZM27.3292 48.25C27.3292 47.325 28.1 46.5541 29.025 46.5541H35.3459C39.0459 46.5541 42.1292 49.6375 42.1292 53.3375C42.1292 55.3417 41.2042 57.1917 39.8167 58.425C41.2042 59.6583 42.1292 61.5083 42.1292 63.5125C42.1292 67.2125 39.0459 70.2958 35.3459 70.2958H29.025C28.1 70.2958 27.3292 69.525 27.3292 68.6V48.25Z" fill="url(#paint3_linear_63_6141)"/>
<path d="M38.5836 53.3375C38.5836 51.4875 37.0419 49.9458 35.1919 49.9458H30.5669V56.7291H35.1919C37.1961 56.7291 38.5836 55.1875 38.5836 53.3375Z" fill="url(#paint4_linear_63_6141)"/>
<path d="M38.5836 63.3585C38.5836 61.5085 37.0419 59.9668 35.1919 59.9668H30.5669V66.7501H35.1919C37.1961 66.7501 38.5836 65.2085 38.5836 63.3585Z" fill="url(#paint5_linear_63_6141)"/>
</g>
<defs>
<filter id="filter0_d_63_6141" x="0" y="0" width="108" height="108" filterUnits="userSpaceOnUse" color-interpolation-filters="sRGB">
<feFlood flood-opacity="0" result="BackgroundImageFix"/>
<feColorMatrix in="SourceAlpha" type="matrix" values="0 0 0 0 0 0 0 0 0 0 0 0 0 0 0 0 0 0 127 0" result="hardAlpha"/>
<feOffset dy="15"/>
<feGaussianBlur stdDeviation="8.5"/>
<feComposite in2="hardAlpha" operator="out"/>
<feColorMatrix type="matrix" values="0 0 0 0 0.384314 0 0 0 0 0.52549 0 0 0 0 0.266667 0 0 0 0.35 0"/>
<feBlend mode="normal" in2="BackgroundImageFix" result="effect1_dropShadow_63_6141"/>
<feBlend mode="normal" in="SourceGraphic" in2="effect1_dropShadow_63_6141" result="shape"/>
</filter>
<linearGradient id="paint0_linear_63_6141" x1="53.4312" y1="14.6416" x2="56.1832" y2="15.6891" gradientUnits="userSpaceOnUse">
<stop stop-color="#98BA53"/>
<stop offset="1" stop-color="#628644"/>
</linearGradient>
<linearGradient id="paint1_linear_63_6141" x1="49.639" y1="2" x2="68.0172" y2="12.3043" gradientUnits="userSpaceOnUse">
<stop stop-color="#98BA53"/>
<stop offset="1" stop-color="#628644"/>
</linearGradient>
<linearGradient id="paint2_linear_63_6141" x1="69.0057" y1="40.6958" x2="87.342" y2="50.9319" gradientUnits="userSpaceOnUse">
<stop stop-color="#98BA53"/>
<stop offset="1" stop-color="#628644"/>
</linearGradient>
<linearGradient id="paint3_linear_63_6141" x1="30.3099" y1="40.6958" x2="48.6462" y2="50.9319" gradientUnits="userSpaceOnUse">
<stop stop-color="#98BA53"/>
<stop offset="1" stop-color="#628644"/>
</linearGradient>
<linearGradient id="paint4_linear_63_6141" x1="33.5892" y1="49.9458" x2="37.3943" y2="52.4562" gradientUnits="userSpaceOnUse">
<stop stop-color="#98BA53"/>
<stop offset="1" stop-color="#628644"/>
</linearGradient>
<linearGradient id="paint5_linear_63_6141" x1="33.5892" y1="59.9668" x2="37.3943" y2="62.4772" gradientUnits="userSpaceOnUse">
<stop stop-color="#98BA53"/>
<stop offset="1" stop-color="#628644"/>
</linearGradient>
</defs>
</svg>
