<svg width="112" height="112" viewBox="0 0 112 112" fill="none" xmlns="http://www.w3.org/2000/svg">
<g filter="url(#filter0_d_63_6130)">
<path d="M68.5 39.75H88.5V36H86V28.5H84.75V22.25H82.25V28.5H81V36H68.5V39.75Z" fill="url(#paint0_linear_63_6130)"/>
<path d="M59.75 4.75H57.25V10.975L59.75 10.475V4.75Z" fill="url(#paint1_linear_63_6130)"/>
<path d="M64.75 2.25H62.25V9.975L64.75 9.475V2.25Z" fill="url(#paint2_linear_63_6130)"/>
<path d="M69.75 4.75H67.25V8.975L69.75 8.475V4.75Z" fill="url(#paint3_linear_63_6130)"/>
<path d="M61.9375 69.0499C62.8225 68.6886 63.775 68.4999 64.75 68.4999V39.7499H66V33.4999H74.75V10.0249L52.25 14.5249V66.3161C53.0525 66.1111 53.89 65.9999 54.75 65.9999C57.4938 65.9999 60.0775 67.1274 61.9375 69.0499ZM66 18.4999H71V25.9999H66V18.4999ZM56 18.4999H61V25.9999H56V18.4999ZM56 30.9999H61V38.4999H56V30.9999ZM56 43.4999H61V50.9999H56V43.4999ZM56 55.9999H61V63.4999H56V55.9999Z" fill="url(#paint4_linear_63_6130)"/>
<path d="M74.75 66C75.61 66 76.4462 66.1163 77.25 66.3238V47.25H72.25V66.3313C73.0575 66.1213 73.8937 66 74.75 66Z" fill="url(#paint5_linear_63_6130)"/>
<path d="M83.4113 71H83.5C83.9237 71 84.3375 71.0462 84.75 71.0987V47.25H79.75V67.3363C81.2563 68.2063 82.5263 69.4613 83.4113 71Z" fill="url(#paint6_linear_63_6130)"/>
<path d="M89.75 73.2325V42.25H67.25V68.9575C67.3525 68.9938 67.4613 69.01 67.5625 69.0513C68.21 68.3813 68.95 67.815 69.75 67.3525V44.75H87.25V71.7625C88.1537 72.1313 88.9925 72.6237 89.75 73.2325Z" fill="url(#paint7_linear_63_6130)"/>
<path d="M89.98 77.25C88.6825 75.0125 86.2725 73.5 83.5 73.5C82.9437 73.5 82.4025 73.565 81.88 73.68C80.9025 70.675 78.0825 68.5 74.75 68.5C71.9212 68.5 69.46 70.0675 68.1825 72.38C67.2862 71.53 66.0825 71 64.75 71C63.4175 71 62.2138 71.53 61.3175 72.38C60.04 70.0675 57.5788 68.5 54.75 68.5C51.38 68.5 48.5312 70.7225 47.585 73.78C47.0837 73.6125 46.5575 73.5 46 73.5L45.3563 73.545C44.4988 72.025 42.8687 71 41 71C38.2388 71 36 73.2388 36 76C36 76.4325 36.0588 76.85 36.1612 77.25H33.6175C33.5475 76.8375 33.5 76.4212 33.5 76C33.5 71.8638 36.8638 68.5 41 68.5C43 68.5 44.8912 69.3025 46.2787 70.6725C47.15 69.2775 48.3487 68.14 49.75 67.3338V22.25H32.25V35.475C33.1313 35.8212 33.9725 36.28 34.75 36.86V34.75H37.25V37.25H35.2275C35.6887 37.635 36.1325 38.0487 36.54 38.515C38.0925 38.5962 39.5588 39.0362 40.885 39.75H42.25V40.6263C45.2588 42.8713 47.25 46.6787 47.25 51C47.25 56.43 44.1125 61.0487 39.75 62.7712V64.8887L32.25 73.6375V77.25H29.75V72.7113L37.25 63.9625V60.8862C41.4825 60.1888 44.75 56.0275 44.75 51C44.75 45.4862 40.8237 41 36 41C35.785 41 35.565 41.0138 35.3425 41.035C33.7375 38.7325 31.2688 37.25 28.5 37.25C23.6762 37.25 19.75 41.7362 19.75 47.25C19.75 52.2775 23.0175 56.4388 27.25 57.1362V46H29.75V57.9725C31.09 59.5475 32.8425 60.5675 34.75 60.885V63.0375L29.75 68.8713V57.9725C29.5437 57.73 29.3438 57.4788 29.1575 57.2113C28.94 57.23 28.7225 57.25 28.5 57.25C28.075 57.25 27.66 57.2038 27.25 57.1362V58.765C26.2037 57.8188 24.9075 57.25 23.5 57.25C20.0538 57.25 17.25 60.6138 17.25 64.75C17.25 68.3725 19.4012 71.4013 22.25 72.0988V77.25H17.25V79.75H94.75V77.25H89.98ZM37.25 32.25H34.75V29.75H37.25V32.25ZM37.25 27.25H34.75V24.75H37.25V27.25ZM42.25 37.25H39.75V34.75H42.25V37.25ZM42.25 32.25H39.75V29.75H42.25V32.25ZM42.25 27.25H39.75V24.75H42.25V27.25ZM44.75 24.75H47.25V27.25H44.75V24.75ZM44.75 29.75H47.25V32.25H44.75V29.75ZM44.75 34.75H47.25V37.25H44.75V34.75ZM44.75 42.25V39.75H47.25V42.25H44.75ZM24.75 72.0988C25.675 71.8725 26.5225 71.3938 27.25 70.7363V77.25H24.75V72.0988Z" fill="url(#paint8_linear_63_6130)"/>
</g>
<defs>
<filter id="filter0_d_63_6130" x="0.25" y="0.25" width="111.5" height="111.5" filterUnits="userSpaceOnUse" color-interpolation-filters="sRGB">
<feFlood flood-opacity="0" result="BackgroundImageFix"/>
<feColorMatrix in="SourceAlpha" type="matrix" values="0 0 0 0 0 0 0 0 0 0 0 0 0 0 0 0 0 0 127 0" result="hardAlpha"/>
<feOffset dy="15"/>
<feGaussianBlur stdDeviation="8.5"/>
<feComposite in2="hardAlpha" operator="out"/>
<feColorMatrix type="matrix" values="0 0 0 0 0.384314 0 0 0 0 0.52549 0 0 0 0 0.266667 0 0 0 0.35 0"/>
<feBlend mode="normal" in2="BackgroundImageFix" result="effect1_dropShadow_63_6130"/>
<feBlend mode="normal" in="SourceGraphic" in2="effect1_dropShadow_63_6130" result="shape"/>
</filter>
<linearGradient id="paint0_linear_63_6130" x1="76.0401" y1="22.25" x2="85.7234" y2="28.4279" gradientUnits="userSpaceOnUse">
<stop stop-color="#98BA53"/>
<stop offset="1" stop-color="#628644"/>
</linearGradient>
<linearGradient id="paint1_linear_63_6130" x1="58.1925" y1="4.75" x2="59.8141" y2="5.11355" gradientUnits="userSpaceOnUse">
<stop stop-color="#98BA53"/>
<stop offset="1" stop-color="#628644"/>
</linearGradient>
<linearGradient id="paint2_linear_63_6130" x1="63.1925" y1="2.25" x2="64.8418" y2="2.54796" gradientUnits="userSpaceOnUse">
<stop stop-color="#98BA53"/>
<stop offset="1" stop-color="#628644"/>
</linearGradient>
<linearGradient id="paint3_linear_63_6130" x1="68.1925" y1="4.75" x2="69.7281" y2="5.25722" gradientUnits="userSpaceOnUse">
<stop stop-color="#98BA53"/>
<stop offset="1" stop-color="#628644"/>
</linearGradient>
<linearGradient id="paint4_linear_63_6130" x1="60.7326" y1="10.0249" x2="75.3964" y2="13.1453" gradientUnits="userSpaceOnUse">
<stop stop-color="#98BA53"/>
<stop offset="1" stop-color="#628644"/>
</linearGradient>
<linearGradient id="paint5_linear_63_6130" x1="74.135" y1="47.25" x2="77.4699" y2="47.7378" gradientUnits="userSpaceOnUse">
<stop stop-color="#98BA53"/>
<stop offset="1" stop-color="#628644"/>
</linearGradient>
<linearGradient id="paint6_linear_63_6130" x1="81.635" y1="47.25" x2="84.9952" y2="47.6433" gradientUnits="userSpaceOnUse">
<stop stop-color="#98BA53"/>
<stop offset="1" stop-color="#628644"/>
</linearGradient>
<linearGradient id="paint7_linear_63_6130" x1="75.7326" y1="42.25" x2="88.8969" y2="47.5869" gradientUnits="userSpaceOnUse">
<stop stop-color="#98BA53"/>
<stop offset="1" stop-color="#628644"/>
</linearGradient>
<linearGradient id="paint8_linear_63_6130" x1="46.4679" y1="22.25" x2="80.179" y2="47.6147" gradientUnits="userSpaceOnUse">
<stop stop-color="#98BA53"/>
<stop offset="1" stop-color="#628644"/>
</linearGradient>
</defs>
</svg>
