<svg width="101" height="66" viewBox="0 0 101 66" fill="none" xmlns="http://www.w3.org/2000/svg">
<circle r="1.92235" transform="matrix(1 0 0 -1 1.92235 1.92238)" fill="#6B8E46"/>
<circle r="1.92235" transform="matrix(1 0 0 -1 1.92235 36.6958)" fill="#6B8E46"/>
<circle r="1.92235" transform="matrix(1 0 0 -1 1.92235 20.2271)" fill="#6B8E46"/>
<circle r="1.92235" transform="matrix(1 0 0 -1 1.92235 55.0005)" fill="#6B8E46"/>
<circle r="1.92235" transform="matrix(1 0 0 -1 1.92235 10.9224)" fill="#6B8E46"/>
<circle r="1.92235" transform="matrix(1 0 0 -1 1.92235 45.6958)" fill="#6B8E46"/>
<circle r="1.92235" transform="matrix(1 0 0 -1 1.92235 29.2271)" fill="#6B8E46"/>
<circle r="1.92235" transform="matrix(1 0 0 -1 1.92235 64.0005)" fill="#6B8E46"/>
<circle r="1.92235" transform="matrix(1 0 0 -1 12.9009 1.92238)" fill="#6B8E46"/>
<circle r="1.92235" transform="matrix(1 0 0 -1 12.9009 36.6958)" fill="#6B8E46"/>
<circle r="1.92235" transform="matrix(1 0 0 -1 12.9009 20.2271)" fill="#6B8E46"/>
<circle r="1.92235" transform="matrix(1 0 0 -1 12.9009 55.0005)" fill="#6B8E46"/>
<circle r="1.92235" transform="matrix(1 0 0 -1 12.9009 10.9224)" fill="#6B8E46"/>
<circle r="1.92235" transform="matrix(1 0 0 -1 12.9009 45.6958)" fill="#6B8E46"/>
<circle r="1.92235" transform="matrix(1 0 0 -1 12.9009 29.2271)" fill="#6B8E46"/>
<circle r="1.92235" transform="matrix(1 0 0 -1 12.9009 64.0005)" fill="#6B8E46"/>
<circle r="1.92235" transform="matrix(1 0 0 -1 23.8794 1.92238)" fill="#6B8E46"/>
<circle r="1.92235" transform="matrix(1 0 0 -1 65.7954 1.92238)" fill="#6B8E46"/>
<circle r="1.92235" transform="matrix(1 0 0 -1 23.8794 36.6958)" fill="#6B8E46"/>
<circle r="1.92235" transform="matrix(1 0 0 -1 65.7954 36.6958)" fill="#6B8E46"/>
<circle r="1.92235" transform="matrix(1 0 0 -1 23.8794 20.2271)" fill="#6B8E46"/>
<circle r="1.92235" transform="matrix(1 0 0 -1 65.7954 20.2271)" fill="#6B8E46"/>
<circle r="1.92235" transform="matrix(1 0 0 -1 23.8794 55.0005)" fill="#6B8E46"/>
<circle r="1.92235" transform="matrix(1 0 0 -1 65.7954 55.0005)" fill="#6B8E46"/>
<circle r="1.92235" transform="matrix(1 0 0 -1 23.8794 10.9224)" fill="#6B8E46"/>
<circle r="1.92235" transform="matrix(1 0 0 -1 65.7954 10.9224)" fill="#6B8E46"/>
<circle r="1.92235" transform="matrix(1 0 0 -1 23.8794 45.6958)" fill="#6B8E46"/>
<circle r="1.92235" transform="matrix(1 0 0 -1 65.7954 45.6958)" fill="#6B8E46"/>
<circle r="1.92235" transform="matrix(1 0 0 -1 23.8794 29.2271)" fill="#6B8E46"/>
<circle r="1.92235" transform="matrix(1 0 0 -1 65.7954 29.2271)" fill="#6B8E46"/>
<circle r="1.92235" transform="matrix(1 0 0 -1 23.8794 64.0005)" fill="#6B8E46"/>
<circle r="1.92235" transform="matrix(1 0 0 -1 65.7954 64.0005)" fill="#6B8E46"/>
<circle r="1.92235" transform="matrix(1 0 0 -1 34.8579 1.92238)" fill="#6B8E46"/>
<circle r="1.92235" transform="matrix(1 0 0 -1 76.7739 1.92238)" fill="#6B8E46"/>
<circle r="1.92235" transform="matrix(1 0 0 -1 34.8579 36.6958)" fill="#6B8E46"/>
<circle r="1.92235" transform="matrix(1 0 0 -1 76.7739 36.6958)" fill="#6B8E46"/>
<circle r="1.92235" transform="matrix(1 0 0 -1 34.8579 20.2271)" fill="#6B8E46"/>
<circle r="1.92235" transform="matrix(1 0 0 -1 76.7739 20.2271)" fill="#6B8E46"/>
<circle r="1.92235" transform="matrix(1 0 0 -1 34.8579 55.0005)" fill="#6B8E46"/>
<circle r="1.92235" transform="matrix(1 0 0 -1 76.7739 55.0005)" fill="#6B8E46"/>
<circle r="1.92235" transform="matrix(1 0 0 -1 34.8579 10.9224)" fill="#6B8E46"/>
<circle r="1.92235" transform="matrix(1 0 0 -1 76.7739 10.9224)" fill="#6B8E46"/>
<circle r="1.92235" transform="matrix(1 0 0 -1 34.8579 45.6958)" fill="#6B8E46"/>
<circle r="1.92235" transform="matrix(1 0 0 -1 76.7739 45.6958)" fill="#6B8E46"/>
<circle r="1.92235" transform="matrix(1 0 0 -1 34.8579 29.2271)" fill="#6B8E46"/>
<circle r="1.92235" transform="matrix(1 0 0 -1 76.7739 29.2271)" fill="#6B8E46"/>
<circle r="1.92235" transform="matrix(1 0 0 -1 34.8579 64.0005)" fill="#6B8E46"/>
<circle r="1.92235" transform="matrix(1 0 0 -1 76.7739 64.0005)" fill="#6B8E46"/>
<circle r="1.92235" transform="matrix(1 0 0 -1 45.8384 1.92238)" fill="#6B8E46"/>
<circle r="1.92235" transform="matrix(1 0 0 -1 87.7524 1.92238)" fill="#6B8E46"/>
<circle r="1.92235" transform="matrix(1 0 0 -1 45.8384 36.6958)" fill="#6B8E46"/>
<circle r="1.92235" transform="matrix(1 0 0 -1 87.7524 36.6958)" fill="#6B8E46"/>
<circle r="1.92235" transform="matrix(1 0 0 -1 45.8384 20.2271)" fill="#6B8E46"/>
<circle r="1.92235" transform="matrix(1 0 0 -1 87.7524 20.2271)" fill="#6B8E46"/>
<circle r="1.92235" transform="matrix(1 0 0 -1 45.8384 55.0005)" fill="#6B8E46"/>
<circle r="1.92235" transform="matrix(1 0 0 -1 87.7524 55.0005)" fill="#6B8E46"/>
<circle r="1.92235" transform="matrix(1 0 0 -1 45.8384 10.9224)" fill="#6B8E46"/>
<circle r="1.92235" transform="matrix(1 0 0 -1 87.7524 10.9224)" fill="#6B8E46"/>
<circle r="1.92235" transform="matrix(1 0 0 -1 45.8384 45.6958)" fill="#6B8E46"/>
<circle r="1.92235" transform="matrix(1 0 0 -1 87.7524 45.6958)" fill="#6B8E46"/>
<circle r="1.92235" transform="matrix(1 0 0 -1 45.8384 29.2271)" fill="#6B8E46"/>
<circle r="1.92235" transform="matrix(1 0 0 -1 87.7524 29.2271)" fill="#6B8E46"/>
<circle r="1.92235" transform="matrix(1 0 0 -1 45.8384 64.0005)" fill="#6B8E46"/>
<circle r="1.92235" transform="matrix(1 0 0 -1 87.7524 64.0005)" fill="#6B8E46"/>
<circle r="1.92235" transform="matrix(1 0 0 -1 56.8169 1.92238)" fill="#6B8E46"/>
<circle r="1.92235" transform="matrix(1 0 0 -1 98.7309 1.92238)" fill="#6B8E46"/>
<circle r="1.92235" transform="matrix(1 0 0 -1 56.8169 36.6958)" fill="#6B8E46"/>
<circle r="1.92235" transform="matrix(1 0 0 -1 98.7309 36.6958)" fill="#6B8E46"/>
<circle r="1.92235" transform="matrix(1 0 0 -1 56.8169 20.2271)" fill="#6B8E46"/>
<circle r="1.92235" transform="matrix(1 0 0 -1 98.7309 20.2271)" fill="#6B8E46"/>
<circle r="1.92235" transform="matrix(1 0 0 -1 56.8169 55.0005)" fill="#6B8E46"/>
<circle r="1.92235" transform="matrix(1 0 0 -1 98.7309 55.0005)" fill="#6B8E46"/>
<circle r="1.92235" transform="matrix(1 0 0 -1 56.8169 10.9224)" fill="#6B8E46"/>
<circle r="1.92235" transform="matrix(1 0 0 -1 98.7309 10.9224)" fill="#6B8E46"/>
<circle r="1.92235" transform="matrix(1 0 0 -1 56.8169 45.6958)" fill="#6B8E46"/>
<circle r="1.92235" transform="matrix(1 0 0 -1 98.7309 45.6958)" fill="#6B8E46"/>
<circle r="1.92235" transform="matrix(1 0 0 -1 56.8169 29.2271)" fill="#6B8E46"/>
<circle r="1.92235" transform="matrix(1 0 0 -1 98.7309 29.2271)" fill="#6B8E46"/>
<circle r="1.92235" transform="matrix(1 0 0 -1 56.8169 64.0005)" fill="#6B8E46"/>
<circle r="1.92235" transform="matrix(1 0 0 -1 98.7309 64.0005)" fill="#6B8E46"/>
</svg>
