<svg width="66" height="101" viewBox="0 0 66 101" fill="none" xmlns="http://www.w3.org/2000/svg">
<circle r="1.92235" transform="matrix(-4.37114e-08 1 1 4.37114e-08 64.0005 1.92235)" fill="#6B8E46"/>
<circle r="1.92235" transform="matrix(-4.37114e-08 1 1 4.37114e-08 29.227 1.92235)" fill="#6B8E46"/>
<circle r="1.92235" transform="matrix(-4.37114e-08 1 1 4.37114e-08 45.6958 1.92235)" fill="#6B8E46"/>
<circle r="1.92235" transform="matrix(-4.37114e-08 1 1 4.37114e-08 10.9223 1.92235)" fill="#6B8E46"/>
<circle r="1.92235" transform="matrix(-4.37114e-08 1 1 4.37114e-08 55.0005 1.92235)" fill="#6B8E46"/>
<circle r="1.92235" transform="matrix(-4.37114e-08 1 1 4.37114e-08 20.227 1.92235)" fill="#6B8E46"/>
<circle r="1.92235" transform="matrix(-4.37114e-08 1 1 4.37114e-08 36.6958 1.92235)" fill="#6B8E46"/>
<circle r="1.92235" transform="matrix(-4.37114e-08 1 1 4.37114e-08 1.92235 1.92235)" fill="#6B8E46"/>
<circle r="1.92235" transform="matrix(-4.37114e-08 1 1 4.37114e-08 64.0005 12.9009)" fill="#6B8E46"/>
<circle r="1.92235" transform="matrix(-4.37114e-08 1 1 4.37114e-08 29.227 12.9009)" fill="#6B8E46"/>
<circle r="1.92235" transform="matrix(-4.37114e-08 1 1 4.37114e-08 45.6958 12.9009)" fill="#6B8E46"/>
<circle r="1.92235" transform="matrix(-4.37114e-08 1 1 4.37114e-08 10.9223 12.9009)" fill="#6B8E46"/>
<circle r="1.92235" transform="matrix(-4.37114e-08 1 1 4.37114e-08 55.0005 12.9009)" fill="#6B8E46"/>
<circle r="1.92235" transform="matrix(-4.37114e-08 1 1 4.37114e-08 20.227 12.9009)" fill="#6B8E46"/>
<circle r="1.92235" transform="matrix(-4.37114e-08 1 1 4.37114e-08 36.6958 12.9009)" fill="#6B8E46"/>
<circle r="1.92235" transform="matrix(-4.37114e-08 1 1 4.37114e-08 1.92235 12.9009)" fill="#6B8E46"/>
<circle r="1.92235" transform="matrix(-4.37114e-08 1 1 4.37114e-08 64.0005 23.8794)" fill="#6B8E46"/>
<circle r="1.92235" transform="matrix(-4.37114e-08 1 1 4.37114e-08 64.0005 65.7954)" fill="#6B8E46"/>
<circle r="1.92235" transform="matrix(-4.37114e-08 1 1 4.37114e-08 29.227 23.8794)" fill="#6B8E46"/>
<circle r="1.92235" transform="matrix(-4.37114e-08 1 1 4.37114e-08 29.227 65.7954)" fill="#6B8E46"/>
<circle r="1.92235" transform="matrix(-4.37114e-08 1 1 4.37114e-08 45.6958 23.8794)" fill="#6B8E46"/>
<circle r="1.92235" transform="matrix(-4.37114e-08 1 1 4.37114e-08 45.6958 65.7954)" fill="#6B8E46"/>
<circle r="1.92235" transform="matrix(-4.37114e-08 1 1 4.37114e-08 10.9223 23.8794)" fill="#6B8E46"/>
<circle r="1.92235" transform="matrix(-4.37114e-08 1 1 4.37114e-08 10.9223 65.7954)" fill="#6B8E46"/>
<circle r="1.92235" transform="matrix(-4.37114e-08 1 1 4.37114e-08 55.0005 23.8794)" fill="#6B8E46"/>
<circle r="1.92235" transform="matrix(-4.37114e-08 1 1 4.37114e-08 55.0005 65.7954)" fill="#6B8E46"/>
<circle r="1.92235" transform="matrix(-4.37114e-08 1 1 4.37114e-08 20.227 23.8794)" fill="#6B8E46"/>
<circle r="1.92235" transform="matrix(-4.37114e-08 1 1 4.37114e-08 20.227 65.7954)" fill="#6B8E46"/>
<circle r="1.92235" transform="matrix(-4.37114e-08 1 1 4.37114e-08 36.6958 23.8794)" fill="#6B8E46"/>
<circle r="1.92235" transform="matrix(-4.37114e-08 1 1 4.37114e-08 36.6958 65.7954)" fill="#6B8E46"/>
<circle r="1.92235" transform="matrix(-4.37114e-08 1 1 4.37114e-08 1.92235 23.8794)" fill="#6B8E46"/>
<circle r="1.92235" transform="matrix(-4.37114e-08 1 1 4.37114e-08 1.92235 65.7954)" fill="#6B8E46"/>
<circle r="1.92235" transform="matrix(-4.37114e-08 1 1 4.37114e-08 64.0005 34.8579)" fill="#6B8E46"/>
<circle r="1.92235" transform="matrix(-4.37114e-08 1 1 4.37114e-08 64.0005 76.7739)" fill="#6B8E46"/>
<circle r="1.92235" transform="matrix(-4.37114e-08 1 1 4.37114e-08 29.227 34.8579)" fill="#6B8E46"/>
<circle r="1.92235" transform="matrix(-4.37114e-08 1 1 4.37114e-08 29.227 76.7739)" fill="#6B8E46"/>
<circle r="1.92235" transform="matrix(-4.37114e-08 1 1 4.37114e-08 45.6958 34.8579)" fill="#6B8E46"/>
<circle r="1.92235" transform="matrix(-4.37114e-08 1 1 4.37114e-08 45.6958 76.7739)" fill="#6B8E46"/>
<circle r="1.92235" transform="matrix(-4.37114e-08 1 1 4.37114e-08 10.9223 34.8579)" fill="#6B8E46"/>
<circle r="1.92235" transform="matrix(-4.37114e-08 1 1 4.37114e-08 10.9223 76.7739)" fill="#6B8E46"/>
<circle r="1.92235" transform="matrix(-4.37114e-08 1 1 4.37114e-08 55.0005 34.8579)" fill="#6B8E46"/>
<circle r="1.92235" transform="matrix(-4.37114e-08 1 1 4.37114e-08 55.0005 76.7739)" fill="#6B8E46"/>
<circle r="1.92235" transform="matrix(-4.37114e-08 1 1 4.37114e-08 20.227 34.8579)" fill="#6B8E46"/>
<circle r="1.92235" transform="matrix(-4.37114e-08 1 1 4.37114e-08 20.227 76.7739)" fill="#6B8E46"/>
<circle r="1.92235" transform="matrix(-4.37114e-08 1 1 4.37114e-08 36.6958 34.8579)" fill="#6B8E46"/>
<circle r="1.92235" transform="matrix(-4.37114e-08 1 1 4.37114e-08 36.6958 76.7739)" fill="#6B8E46"/>
<circle r="1.92235" transform="matrix(-4.37114e-08 1 1 4.37114e-08 1.92235 34.8579)" fill="#6B8E46"/>
<circle r="1.92235" transform="matrix(-4.37114e-08 1 1 4.37114e-08 1.92235 76.7739)" fill="#6B8E46"/>
<circle r="1.92235" transform="matrix(-4.37114e-08 1 1 4.37114e-08 64.0005 45.8384)" fill="#6B8E46"/>
<circle r="1.92235" transform="matrix(-4.37114e-08 1 1 4.37114e-08 64.0005 87.7524)" fill="#6B8E46"/>
<circle r="1.92235" transform="matrix(-4.37114e-08 1 1 4.37114e-08 29.227 45.8384)" fill="#6B8E46"/>
<circle r="1.92235" transform="matrix(-4.37114e-08 1 1 4.37114e-08 29.227 87.7524)" fill="#6B8E46"/>
<circle r="1.92235" transform="matrix(-4.37114e-08 1 1 4.37114e-08 45.6958 45.8384)" fill="#6B8E46"/>
<circle r="1.92235" transform="matrix(-4.37114e-08 1 1 4.37114e-08 45.6958 87.7524)" fill="#6B8E46"/>
<circle r="1.92235" transform="matrix(-4.37114e-08 1 1 4.37114e-08 10.9223 45.8384)" fill="#6B8E46"/>
<circle r="1.92235" transform="matrix(-4.37114e-08 1 1 4.37114e-08 10.9223 87.7524)" fill="#6B8E46"/>
<circle r="1.92235" transform="matrix(-4.37114e-08 1 1 4.37114e-08 55.0005 45.8384)" fill="#6B8E46"/>
<circle r="1.92235" transform="matrix(-4.37114e-08 1 1 4.37114e-08 55.0005 87.7524)" fill="#6B8E46"/>
<circle r="1.92235" transform="matrix(-4.37114e-08 1 1 4.37114e-08 20.227 45.8384)" fill="#6B8E46"/>
<circle r="1.92235" transform="matrix(-4.37114e-08 1 1 4.37114e-08 20.227 87.7524)" fill="#6B8E46"/>
<circle r="1.92235" transform="matrix(-4.37114e-08 1 1 4.37114e-08 36.6958 45.8384)" fill="#6B8E46"/>
<circle r="1.92235" transform="matrix(-4.37114e-08 1 1 4.37114e-08 36.6958 87.7524)" fill="#6B8E46"/>
<circle r="1.92235" transform="matrix(-4.37114e-08 1 1 4.37114e-08 1.92235 45.8384)" fill="#6B8E46"/>
<circle r="1.92235" transform="matrix(-4.37114e-08 1 1 4.37114e-08 1.92235 87.7524)" fill="#6B8E46"/>
<circle r="1.92235" transform="matrix(-4.37114e-08 1 1 4.37114e-08 64.0005 56.8169)" fill="#6B8E46"/>
<circle r="1.92235" transform="matrix(-4.37114e-08 1 1 4.37114e-08 64.0005 98.7309)" fill="#6B8E46"/>
<circle r="1.92235" transform="matrix(-4.37114e-08 1 1 4.37114e-08 29.227 56.8169)" fill="#6B8E46"/>
<circle r="1.92235" transform="matrix(-4.37114e-08 1 1 4.37114e-08 29.227 98.7309)" fill="#6B8E46"/>
<circle r="1.92235" transform="matrix(-4.37114e-08 1 1 4.37114e-08 45.6958 56.8169)" fill="#6B8E46"/>
<circle r="1.92235" transform="matrix(-4.37114e-08 1 1 4.37114e-08 45.6958 98.7309)" fill="#6B8E46"/>
<circle r="1.92235" transform="matrix(-4.37114e-08 1 1 4.37114e-08 10.9223 56.8169)" fill="#6B8E46"/>
<circle r="1.92235" transform="matrix(-4.37114e-08 1 1 4.37114e-08 10.9223 98.7309)" fill="#6B8E46"/>
<circle r="1.92235" transform="matrix(-4.37114e-08 1 1 4.37114e-08 55.0005 56.8169)" fill="#6B8E46"/>
<circle r="1.92235" transform="matrix(-4.37114e-08 1 1 4.37114e-08 55.0005 98.7309)" fill="#6B8E46"/>
<circle r="1.92235" transform="matrix(-4.37114e-08 1 1 4.37114e-08 20.227 56.8169)" fill="#6B8E46"/>
<circle r="1.92235" transform="matrix(-4.37114e-08 1 1 4.37114e-08 20.227 98.7309)" fill="#6B8E46"/>
<circle r="1.92235" transform="matrix(-4.37114e-08 1 1 4.37114e-08 36.6958 56.8169)" fill="#6B8E46"/>
<circle r="1.92235" transform="matrix(-4.37114e-08 1 1 4.37114e-08 36.6958 98.7309)" fill="#6B8E46"/>
<circle r="1.92235" transform="matrix(-4.37114e-08 1 1 4.37114e-08 1.92235 56.8169)" fill="#6B8E46"/>
<circle r="1.92235" transform="matrix(-4.37114e-08 1 1 4.37114e-08 1.92235 98.7309)" fill="#6B8E46"/>
</svg>
