<svg width="169" height="84" viewBox="0 0 169 84" fill="none" xmlns="http://www.w3.org/2000/svg">
<path d="M23.8487 36.877V25.3165H27.0388V34.4501H30.9691V25.3165H34.124V34.4501H38.0719V25.3165H41.2267V36.877H23.8487Z" fill="black"/>
<path d="M43.5217 36.877V25.3165H49.5494C50.9358 25.3165 51.9992 25.5843 52.7394 26.12C53.4914 26.6557 53.8674 27.3826 53.8674 28.3009C53.8674 28.9787 53.6501 29.5581 53.2153 30.0391C52.7923 30.5201 52.2107 30.848 51.4705 31.0229V30.7606C52.3517 30.9027 53.0273 31.2197 53.4973 31.7116C53.9791 32.1926 54.2199 32.8212 54.2199 33.5974C54.2199 34.6141 53.8204 35.4175 53.0214 36.0079C52.2225 36.5873 51.1297 36.877 49.7432 36.877H43.5217ZM46.6413 34.6632H49.3202C49.9312 34.6632 50.3836 34.5594 50.6773 34.3517C50.9828 34.144 51.1356 33.8215 51.1356 33.3842C51.1356 32.936 50.9828 32.6135 50.6773 32.4167C50.3836 32.22 49.9312 32.1216 49.3202 32.1216H46.6413V34.6632ZM46.6413 29.9079H48.9501C49.5729 29.9079 50.0252 29.8095 50.3072 29.6127C50.601 29.4159 50.7478 29.1153 50.7478 28.7108C50.7478 28.3064 50.601 28.0112 50.3072 27.8254C50.0252 27.6286 49.5729 27.5302 48.9501 27.5302H46.6413V29.9079Z" fill="black"/>
<path d="M55.8797 36.877V25.3165H64.7978V27.6286H58.9993V29.8423H64.3748V32.1708H58.9993V34.5485H64.7978V36.877H55.8797Z" fill="black"/>
<path d="M66.4993 36.877V25.3165H69.5131V32.6463H69.0549L75.3117 25.3165H77.691V36.877H74.6772V29.5471H75.1354L68.8786 36.877H66.4993ZM72.0864 24.4146C71.3226 24.4146 70.6705 24.3053 70.13 24.0867C69.6013 23.868 69.19 23.5729 68.8963 23.2012C68.6025 22.8295 68.4087 22.4141 68.3147 21.9549L69.7775 21.5122C69.989 22.026 70.2769 22.3922 70.6411 22.6109C71.0054 22.8295 71.493 22.9388 72.104 22.9388C72.7267 22.9388 73.2202 22.8186 73.5845 22.5781C73.9487 22.3376 74.2131 21.9877 74.3776 21.5286L75.8052 21.9549C75.6289 22.7092 75.2177 23.3105 74.5715 23.7587C73.9252 24.196 73.0968 24.4146 72.0864 24.4146Z" fill="black"/>
<path d="M90.4452 39.7466V36.877H79.9761V25.3165H83.2014V34.4501H88.2245V25.3165H91.4322V34.4501H93.2475V39.7466H90.4452Z" fill="black"/>
<path d="M93.262 36.877L99.0782 25.3165H101.722L107.573 36.877H104.313L102.815 33.6958L104.066 34.5321H96.7693L98.003 33.6958L96.5226 36.877H93.262ZM100.382 28.4321L98.3203 33.0071L97.8268 32.2364H102.991L102.55 33.0071L100.471 28.4321H100.382Z" fill="black"/>
<path d="M108.341 36.877V25.3165H114.439C115.873 25.3165 116.954 25.6445 117.682 26.3004C118.411 26.9453 118.775 27.8254 118.775 28.9404C118.775 30.0445 118.411 30.9245 117.682 31.5805C116.954 32.2364 115.873 32.5643 114.439 32.5643H111.602V36.877H108.341ZM111.602 30.2358H114.016C114.568 30.2358 114.98 30.1265 115.25 29.9079C115.52 29.6783 115.655 29.3558 115.655 28.9404C115.655 28.525 115.52 28.2025 115.25 27.9729C114.98 27.7434 114.568 27.6286 114.016 27.6286H111.602V30.2358Z" fill="black"/>
<path d="M126.456 37.0573C125.105 37.0573 123.936 36.8114 122.949 36.3194C121.974 35.8275 121.216 35.1333 120.675 34.2369C120.147 33.3405 119.882 32.291 119.882 31.0885C119.882 29.886 120.147 28.842 120.675 27.9565C121.216 27.0601 121.974 26.366 122.949 25.874C123.936 25.3821 125.105 25.1361 126.456 25.1361C127.314 25.1361 128.095 25.2454 128.8 25.4641C129.505 25.6718 130.099 25.9724 130.58 26.366L129.611 28.7436C129.071 28.3829 128.571 28.1315 128.113 27.9893C127.666 27.8363 127.155 27.7598 126.58 27.7598C125.522 27.7598 124.705 28.0495 124.13 28.6289C123.566 29.1973 123.284 30.0172 123.284 31.0885C123.284 32.1708 123.566 33.0016 124.13 33.581C124.705 34.1494 125.522 34.4337 126.58 34.4337C127.155 34.4337 127.666 34.3626 128.113 34.2205C128.571 34.0675 129.071 33.8106 129.611 33.4498L130.58 35.8275C130.099 36.221 129.505 36.5271 128.8 36.7458C128.095 36.9535 127.314 37.0573 126.456 37.0573Z" fill="black"/>
<path d="M132.282 36.877V25.3165H135.508V29.9571H137.129L136.636 30.2522L139.932 25.3165H143.457L139.526 30.859L138.24 30.0719C139.109 30.214 139.82 30.4927 140.372 30.9081C140.936 31.3126 141.418 31.892 141.817 32.6463L144.091 36.877H140.584L138.962 33.6302C138.727 33.182 138.439 32.865 138.099 32.6791C137.77 32.4823 137.329 32.384 136.777 32.384H135.508V36.877H132.282Z" fill="black"/>
<path d="M143.417 36.877L149.233 25.3165H151.877L157.728 36.877H154.468L152.969 33.6958L154.221 34.5321H146.924L148.158 33.6958L146.677 36.877H143.417ZM150.537 28.4321L148.475 33.0071L147.982 32.2364H153.146L152.705 33.0071L150.625 28.4321H150.537Z" fill="black"/>
<path d="M157.703 36.877L159.712 33.5974C159.994 33.1383 160.329 32.7994 160.717 32.5807C161.116 32.3512 161.568 32.2364 162.074 32.2364H162.849L162.92 32.5315C161.463 32.5315 160.341 32.209 159.553 31.5641C158.766 30.9191 158.372 30.0391 158.372 28.924C158.372 27.7871 158.76 26.9016 159.536 26.2676C160.323 25.6335 161.439 25.3165 162.884 25.3165H169V36.877H165.775V32.5643H164.823C164.506 32.5643 164.236 32.6135 164.012 32.7119C163.789 32.8103 163.607 32.9797 163.466 33.2202L161.245 36.877H157.703ZM163.431 30.449H165.775V27.6122H163.431C162.103 27.6122 161.439 28.0823 161.439 29.0224C161.439 29.9735 162.103 30.449 163.431 30.449Z" fill="black"/>
<path d="M22.897 60.439V55.2737H24.1836C24.7123 54.6834 25.1001 53.8744 25.3468 52.8469C25.6053 51.8193 25.7346 50.5621 25.7346 49.0754V46.009H35.3929V55.2737H37.2083V60.439H34.4236V57.5694H25.6817V60.439H22.897ZM27.3913 55.2737H32.1676V48.3047H28.6955V49.4033C28.6955 50.7589 28.5839 51.9231 28.3607 52.896C28.1492 53.8581 27.826 54.6506 27.3913 55.2737Z" fill="black"/>
<path d="M38.7368 57.5694V46.009H47.655V48.3211H41.8564V50.5348H47.232V52.8632H41.8564V55.2409H47.655V57.5694H38.7368Z" fill="black"/>
<path d="M49.3564 57.5694V46.009H55.4546C56.8881 46.009 57.9691 46.3369 58.6976 46.9928C59.4261 47.6378 59.7903 48.5178 59.7903 49.6329C59.7903 50.737 59.4261 51.617 58.6976 52.2729C57.9691 52.9288 56.8881 53.2568 55.4546 53.2568H52.617V57.5694H49.3564ZM52.617 50.9283H55.0316C55.5839 50.9283 55.9951 50.819 56.2654 50.6004C56.5356 50.3708 56.6707 50.0483 56.6707 49.6329C56.6707 49.2175 56.5356 48.895 56.2654 48.6654C55.9951 48.4358 55.5839 48.3211 55.0316 48.3211H52.617V50.9283Z" fill="black"/>
<path d="M61.4046 57.5694V46.009H70.3228V48.3211H64.5242V50.5348H69.8998V52.8632H64.5242V55.2409H70.3228V57.5694H61.4046Z" fill="black"/>
<path d="M72.0243 57.5694V46.009H78.0519C79.4384 46.009 80.5018 46.2768 81.242 46.8125C81.994 47.3481 82.37 48.0751 82.37 48.9934C82.37 49.6711 82.1526 50.2505 81.7179 50.7315C81.2949 51.2125 80.7133 51.5405 79.973 51.7154V51.453C80.8543 51.5952 81.5299 51.9122 81.9999 52.4041C82.4816 52.8851 82.7225 53.5137 82.7225 54.2899C82.7225 55.3065 82.323 56.11 81.524 56.7003C80.725 57.2797 79.6323 57.5694 78.2458 57.5694H72.0243ZM75.1438 55.3557H77.8228C78.4338 55.3557 78.8862 55.2519 79.1799 55.0442C79.4854 54.8365 79.6382 54.514 79.6382 54.0767C79.6382 53.6285 79.4854 53.306 79.1799 53.1092C78.8862 52.9124 78.4338 52.8141 77.8228 52.8141H75.1438V55.3557ZM75.1438 50.6004H77.4527C78.0754 50.6004 78.5278 50.502 78.8098 50.3052C79.1035 50.1084 79.2504 49.8078 79.2504 49.4033C79.2504 48.9988 79.1035 48.7037 78.8098 48.5178C78.5278 48.3211 78.0754 48.2227 77.4527 48.2227H75.1438V50.6004Z" fill="black"/>
<path d="M84.3823 57.5694V46.009H87.6428V50.4692H92.6483V46.009H95.9089V57.5694H92.6483V52.9452H87.6428V57.5694H84.3823Z" fill="black"/>
<path d="M97.4101 57.5694L99.4194 54.2899C99.7014 53.8307 100.036 53.4918 100.424 53.2732C100.823 53.0436 101.276 52.9288 101.781 52.9288H102.557L102.627 53.224C101.17 53.224 100.048 52.9015 99.2607 52.2565C98.4735 51.6115 98.0799 50.7315 98.0799 49.6165C98.0799 48.4796 98.4676 47.5941 99.2431 46.96C100.03 46.326 101.147 46.009 102.592 46.009H108.708V57.5694H105.482V53.2568H104.531C104.213 53.2568 103.943 53.306 103.72 53.4044C103.497 53.5028 103.314 53.6722 103.173 53.9127L100.953 57.5694H97.4101ZM103.138 51.1415H105.482V48.3047H103.138C101.81 48.3047 101.147 48.7747 101.147 49.7149C101.147 50.6659 101.81 51.1415 103.138 51.1415Z" fill="black"/>
<path fill-rule="evenodd" clip-rule="evenodd" d="M0 0H88.3161V17.5362H75.6995V11.9431H12.6166V72.0569H75.6995V64.6846H88.3161V84H0V0Z" fill="url(#paint0_linear_201_2)"/>
<defs>
<linearGradient id="paint0_linear_201_2" x1="6.3083" y1="33.8389" x2="90.0089" y2="52.4072" gradientUnits="userSpaceOnUse">
<stop stop-color="#9ABC53"/>
<stop offset="0.907197" stop-color="#618543"/>
</linearGradient>
</defs>
</svg>
