<svg width="108" height="108" viewBox="0 0 108 108" fill="none" xmlns="http://www.w3.org/2000/svg">
<g filter="url(#filter0_d_62_6123)">
<path d="M35.7891 62.8418C36.9864 62.8418 37.957 61.8711 37.957 60.6738C37.957 59.4765 36.9864 58.5059 35.7891 58.5059H33.6211V42.6074H29.2852V58.5059H27.1172C25.9199 58.5059 24.9492 59.4765 24.9492 60.6738C24.9492 61.8711 25.9199 62.8418 27.1172 62.8418H29.2852V65.7324H27.1172C25.9199 65.7324 24.9492 66.7031 24.9492 67.9004C24.9492 69.0977 25.9199 70.0684 27.1172 70.0684H29.2852V72.3866C29.2852 73.5839 30.2558 74.5546 31.4531 74.5546C32.6504 74.5546 33.6211 73.5839 33.6211 72.3866V70.0684H35.7891C36.9864 70.0684 37.957 69.0977 37.957 67.9004C37.957 66.7031 36.9864 65.7324 35.7891 65.7324H33.6211V62.8418H35.7891Z" fill="url(#paint0_linear_62_6123)"/>
<path d="M19.2646 29.5997H43.6211L33.592 20.0824V15.0078H43.0471C44.5351 15.0078 45.5769 13.5431 45.0995 12.1418L43.8608 8.50391L45.0995 4.86605C45.5773 3.46338 44.5338 2 43.0471 2H31.4239C30.2272 2 29.256 2.97125 29.256 4.16797V15.0078H29.2561V20.0349L19.2646 29.5997Z" fill="url(#paint1_linear_62_6123)"/>
<path d="M64.3584 29.5997H88.7148L78.6574 20.0556V15.0078H88.1125C89.6005 15.0078 90.6423 13.5431 90.1649 12.1418L88.9262 8.50391L90.1649 4.86605C90.6427 3.46338 89.5992 2 88.1125 2H76.4893C75.2926 2 74.3214 2.97125 74.3214 4.16797V15.0078H74.3215V20.0619L64.3584 29.5997Z" fill="url(#paint2_linear_62_6123)"/>
<path d="M74.3789 42.6074H78.7148V55.6152H74.3789V42.6074Z" fill="url(#paint3_linear_62_6123)"/>
<path d="M62.0938 33.9355V42.2201C57.0657 42.2201 50.9319 42.2201 45.9062 42.2201V33.9355H17V73.8319C17 75.0292 17.9707 75.9999 19.168 75.9999C20.3653 75.9999 21.3359 75.0292 21.3359 73.8319V55.6152H24.9492V40.4394C24.9492 39.2427 25.9205 38.2715 27.1172 38.2715H35.7891C36.9858 38.2715 37.957 39.2427 37.957 40.4394V55.6152H41.5702V73.8319C41.5702 75.0287 42.5414 75.9999 43.7381 75.9999C44.9349 75.9999 45.9061 75.0287 45.9061 73.8319V55.6152H45.9062H62.0936V73.8319C62.0936 75.0287 63.0649 75.9999 64.2616 75.9999C65.4583 75.9999 66.4295 75.0287 66.4295 73.8319V55.6152H70.043V40.4394C70.043 39.2427 71.0142 38.2715 72.2109 38.2715H80.8828C82.0795 38.2715 83.0508 39.2427 83.0508 40.4394V55.6152H86.6641V73.8319C86.6641 75.0292 87.6347 75.9999 88.832 75.9999C90.0293 75.9999 91 75.0292 91 73.8319C91 71.1207 91 35.5338 91 33.9355H62.0938ZM45.9062 46.556H51.8463V51.2793H45.9062V46.556ZM56.1823 51.2793V46.556H62.0938V51.2793H56.1823Z" fill="url(#paint4_linear_62_6123)"/>
</g>
<defs>
<filter id="filter0_d_62_6123" x="0" y="0" width="108" height="108" filterUnits="userSpaceOnUse" color-interpolation-filters="sRGB">
<feFlood flood-opacity="0" result="BackgroundImageFix"/>
<feColorMatrix in="SourceAlpha" type="matrix" values="0 0 0 0 0 0 0 0 0 0 0 0 0 0 0 0 0 0 127 0" result="hardAlpha"/>
<feOffset dy="15"/>
<feGaussianBlur stdDeviation="8.5"/>
<feComposite in2="hardAlpha" operator="out"/>
<feColorMatrix type="matrix" values="0 0 0 0 0.384314 0 0 0 0 0.52549 0 0 0 0 0.266667 0 0 0 0.35 0"/>
<feBlend mode="normal" in2="BackgroundImageFix" result="effect1_dropShadow_62_6123"/>
<feBlend mode="normal" in="SourceGraphic" in2="effect1_dropShadow_62_6123" result="shape"/>
</filter>
<linearGradient id="paint0_linear_62_6123" x1="29.8532" y1="42.6074" x2="38.2793" y2="44.5226" gradientUnits="userSpaceOnUse">
<stop stop-color="#98BA53"/>
<stop offset="1" stop-color="#628644"/>
</linearGradient>
<linearGradient id="paint1_linear_62_6123" x1="29.0487" y1="2" x2="42.9091" y2="9.27552" gradientUnits="userSpaceOnUse">
<stop stop-color="#98BA53"/>
<stop offset="1" stop-color="#628644"/>
</linearGradient>
<linearGradient id="paint2_linear_62_6123" x1="74.1317" y1="2" x2="87.9835" y2="9.26306" gradientUnits="userSpaceOnUse">
<stop stop-color="#98BA53"/>
<stop offset="1" stop-color="#628644"/>
</linearGradient>
<linearGradient id="paint3_linear_62_6123" x1="76.0136" y1="42.6074" x2="78.8685" y2="43.1387" gradientUnits="userSpaceOnUse">
<stop stop-color="#98BA53"/>
<stop offset="1" stop-color="#628644"/>
</linearGradient>
<linearGradient id="paint4_linear_62_6123" x1="44.8984" y1="33.9355" x2="70.5603" y2="59.1372" gradientUnits="userSpaceOnUse">
<stop stop-color="#98BA53"/>
<stop offset="1" stop-color="#628644"/>
</linearGradient>
</defs>
</svg>
