<svg width="101" height="67" viewBox="0 0 101 67" fill="none" xmlns="http://www.w3.org/2000/svg">
<circle r="1.92235" transform="matrix(-1 -8.74228e-08 -8.74228e-08 1 98.731 64.3657)" fill="#6B8E46"/>
<circle r="1.92235" transform="matrix(-1 -8.74228e-08 -8.74228e-08 1 98.731 29.5923)" fill="#6B8E46"/>
<circle r="1.92235" transform="matrix(-1 -8.74228e-08 -8.74228e-08 1 98.731 46.061)" fill="#6B8E46"/>
<circle r="1.92235" transform="matrix(-1 -8.74228e-08 -8.74228e-08 1 98.731 11.2876)" fill="#6B8E46"/>
<circle r="1.92235" transform="matrix(-1 -8.74228e-08 -8.74228e-08 1 98.731 55.3657)" fill="#6B8E46"/>
<circle r="1.92235" transform="matrix(-1 -8.74228e-08 -8.74228e-08 1 98.731 20.5923)" fill="#6B8E46"/>
<circle r="1.92235" transform="matrix(-1 -8.74228e-08 -8.74228e-08 1 98.731 37.061)" fill="#6B8E46"/>
<circle r="1.92235" transform="matrix(-1 -8.74228e-08 -8.74228e-08 1 98.731 2.28758)" fill="#6B8E46"/>
<circle r="1.92235" transform="matrix(-1 -8.74228e-08 -8.74228e-08 1 87.7525 64.3657)" fill="#6B8E46"/>
<circle r="1.92235" transform="matrix(-1 -8.74228e-08 -8.74228e-08 1 87.7525 29.5923)" fill="#6B8E46"/>
<circle r="1.92235" transform="matrix(-1 -8.74228e-08 -8.74228e-08 1 87.7525 46.061)" fill="#6B8E46"/>
<circle r="1.92235" transform="matrix(-1 -8.74228e-08 -8.74228e-08 1 87.7525 11.2876)" fill="#6B8E46"/>
<circle r="1.92235" transform="matrix(-1 -8.74228e-08 -8.74228e-08 1 87.7525 55.3657)" fill="#6B8E46"/>
<circle r="1.92235" transform="matrix(-1 -8.74228e-08 -8.74228e-08 1 87.7525 20.5923)" fill="#6B8E46"/>
<circle r="1.92235" transform="matrix(-1 -8.74228e-08 -8.74228e-08 1 87.7525 37.061)" fill="#6B8E46"/>
<circle r="1.92235" transform="matrix(-1 -8.74228e-08 -8.74228e-08 1 87.7525 2.28758)" fill="#6B8E46"/>
<circle r="1.92235" transform="matrix(-1 -8.74228e-08 -8.74228e-08 1 76.7739 64.3657)" fill="#6B8E46"/>
<circle r="1.92235" transform="matrix(-1 -8.74228e-08 -8.74228e-08 1 34.8579 64.3657)" fill="#6B8E46"/>
<circle r="1.92235" transform="matrix(-1 -8.74228e-08 -8.74228e-08 1 76.7739 29.5923)" fill="#6B8E46"/>
<circle r="1.92235" transform="matrix(-1 -8.74228e-08 -8.74228e-08 1 34.8579 29.5923)" fill="#6B8E46"/>
<circle r="1.92235" transform="matrix(-1 -8.74228e-08 -8.74228e-08 1 76.7739 46.061)" fill="#6B8E46"/>
<circle r="1.92235" transform="matrix(-1 -8.74228e-08 -8.74228e-08 1 34.8579 46.061)" fill="#6B8E46"/>
<circle r="1.92235" transform="matrix(-1 -8.74228e-08 -8.74228e-08 1 76.7739 11.2876)" fill="#6B8E46"/>
<circle r="1.92235" transform="matrix(-1 -8.74228e-08 -8.74228e-08 1 34.8579 11.2876)" fill="#6B8E46"/>
<circle r="1.92235" transform="matrix(-1 -8.74228e-08 -8.74228e-08 1 76.7739 55.3657)" fill="#6B8E46"/>
<circle r="1.92235" transform="matrix(-1 -8.74228e-08 -8.74228e-08 1 34.8579 55.3657)" fill="#6B8E46"/>
<circle r="1.92235" transform="matrix(-1 -8.74228e-08 -8.74228e-08 1 76.7739 20.5923)" fill="#6B8E46"/>
<circle r="1.92235" transform="matrix(-1 -8.74228e-08 -8.74228e-08 1 34.8579 20.5923)" fill="#6B8E46"/>
<circle r="1.92235" transform="matrix(-1 -8.74228e-08 -8.74228e-08 1 76.7739 37.061)" fill="#6B8E46"/>
<circle r="1.92235" transform="matrix(-1 -8.74228e-08 -8.74228e-08 1 34.8579 37.061)" fill="#6B8E46"/>
<circle r="1.92235" transform="matrix(-1 -8.74228e-08 -8.74228e-08 1 76.7739 2.28758)" fill="#6B8E46"/>
<circle r="1.92235" transform="matrix(-1 -8.74228e-08 -8.74228e-08 1 34.8579 2.28758)" fill="#6B8E46"/>
<circle r="1.92235" transform="matrix(-1 -8.74228e-08 -8.74228e-08 1 65.7954 64.3657)" fill="#6B8E46"/>
<circle r="1.92235" transform="matrix(-1 -8.74228e-08 -8.74228e-08 1 23.8794 64.3657)" fill="#6B8E46"/>
<circle r="1.92235" transform="matrix(-1 -8.74228e-08 -8.74228e-08 1 65.7954 29.5923)" fill="#6B8E46"/>
<circle r="1.92235" transform="matrix(-1 -8.74228e-08 -8.74228e-08 1 23.8794 29.5923)" fill="#6B8E46"/>
<circle r="1.92235" transform="matrix(-1 -8.74228e-08 -8.74228e-08 1 65.7954 46.061)" fill="#6B8E46"/>
<circle r="1.92235" transform="matrix(-1 -8.74228e-08 -8.74228e-08 1 23.8794 46.061)" fill="#6B8E46"/>
<circle r="1.92235" transform="matrix(-1 -8.74228e-08 -8.74228e-08 1 65.7954 11.2876)" fill="#6B8E46"/>
<circle r="1.92235" transform="matrix(-1 -8.74228e-08 -8.74228e-08 1 23.8794 11.2876)" fill="#6B8E46"/>
<circle r="1.92235" transform="matrix(-1 -8.74228e-08 -8.74228e-08 1 65.7954 55.3657)" fill="#6B8E46"/>
<circle r="1.92235" transform="matrix(-1 -8.74228e-08 -8.74228e-08 1 23.8794 55.3657)" fill="#6B8E46"/>
<circle r="1.92235" transform="matrix(-1 -8.74228e-08 -8.74228e-08 1 65.7954 20.5923)" fill="#6B8E46"/>
<circle r="1.92235" transform="matrix(-1 -8.74228e-08 -8.74228e-08 1 23.8794 20.5923)" fill="#6B8E46"/>
<circle r="1.92235" transform="matrix(-1 -8.74228e-08 -8.74228e-08 1 65.7954 37.061)" fill="#6B8E46"/>
<circle r="1.92235" transform="matrix(-1 -8.74228e-08 -8.74228e-08 1 23.8794 37.061)" fill="#6B8E46"/>
<circle r="1.92235" transform="matrix(-1 -8.74228e-08 -8.74228e-08 1 65.7954 2.28758)" fill="#6B8E46"/>
<circle r="1.92235" transform="matrix(-1 -8.74228e-08 -8.74228e-08 1 23.8794 2.28758)" fill="#6B8E46"/>
<circle r="1.92235" transform="matrix(-1 -8.74228e-08 -8.74228e-08 1 54.815 64.3657)" fill="#6B8E46"/>
<circle r="1.92235" transform="matrix(-1 -8.74228e-08 -8.74228e-08 1 12.9009 64.3657)" fill="#6B8E46"/>
<circle r="1.92235" transform="matrix(-1 -8.74228e-08 -8.74228e-08 1 54.815 29.5923)" fill="#6B8E46"/>
<circle r="1.92235" transform="matrix(-1 -8.74228e-08 -8.74228e-08 1 12.9009 29.5923)" fill="#6B8E46"/>
<circle r="1.92235" transform="matrix(-1 -8.74228e-08 -8.74228e-08 1 54.815 46.061)" fill="#6B8E46"/>
<circle r="1.92235" transform="matrix(-1 -8.74228e-08 -8.74228e-08 1 12.9009 46.061)" fill="#6B8E46"/>
<circle r="1.92235" transform="matrix(-1 -8.74228e-08 -8.74228e-08 1 54.815 11.2876)" fill="#6B8E46"/>
<circle r="1.92235" transform="matrix(-1 -8.74228e-08 -8.74228e-08 1 12.9009 11.2876)" fill="#6B8E46"/>
<circle r="1.92235" transform="matrix(-1 -8.74228e-08 -8.74228e-08 1 54.815 55.3657)" fill="#6B8E46"/>
<circle r="1.92235" transform="matrix(-1 -8.74228e-08 -8.74228e-08 1 12.9009 55.3657)" fill="#6B8E46"/>
<circle r="1.92235" transform="matrix(-1 -8.74228e-08 -8.74228e-08 1 54.815 20.5923)" fill="#6B8E46"/>
<circle r="1.92235" transform="matrix(-1 -8.74228e-08 -8.74228e-08 1 12.9009 20.5923)" fill="#6B8E46"/>
<circle r="1.92235" transform="matrix(-1 -8.74228e-08 -8.74228e-08 1 54.815 37.061)" fill="#6B8E46"/>
<circle r="1.92235" transform="matrix(-1 -8.74228e-08 -8.74228e-08 1 12.9009 37.061)" fill="#6B8E46"/>
<circle r="1.92235" transform="matrix(-1 -8.74228e-08 -8.74228e-08 1 54.815 2.28758)" fill="#6B8E46"/>
<circle r="1.92235" transform="matrix(-1 -8.74228e-08 -8.74228e-08 1 12.9009 2.28758)" fill="#6B8E46"/>
<circle r="1.92235" transform="matrix(-1 -8.74228e-08 -8.74228e-08 1 43.8364 64.3657)" fill="#6B8E46"/>
<circle r="1.92235" transform="matrix(-1 -8.74228e-08 -8.74228e-08 1 1.92238 64.3657)" fill="#6B8E46"/>
<circle r="1.92235" transform="matrix(-1 -8.74228e-08 -8.74228e-08 1 43.8364 29.5923)" fill="#6B8E46"/>
<circle r="1.92235" transform="matrix(-1 -8.74228e-08 -8.74228e-08 1 1.92238 29.5923)" fill="#6B8E46"/>
<circle r="1.92235" transform="matrix(-1 -8.74228e-08 -8.74228e-08 1 43.8364 46.061)" fill="#6B8E46"/>
<circle r="1.92235" transform="matrix(-1 -8.74228e-08 -8.74228e-08 1 1.92238 46.061)" fill="#6B8E46"/>
<circle r="1.92235" transform="matrix(-1 -8.74228e-08 -8.74228e-08 1 43.8364 11.2876)" fill="#6B8E46"/>
<circle r="1.92235" transform="matrix(-1 -8.74228e-08 -8.74228e-08 1 1.92238 11.2876)" fill="#6B8E46"/>
<circle r="1.92235" transform="matrix(-1 -8.74228e-08 -8.74228e-08 1 43.8364 55.3657)" fill="#6B8E46"/>
<circle r="1.92235" transform="matrix(-1 -8.74228e-08 -8.74228e-08 1 1.92238 55.3657)" fill="#6B8E46"/>
<circle r="1.92235" transform="matrix(-1 -8.74228e-08 -8.74228e-08 1 43.8364 20.5923)" fill="#6B8E46"/>
<circle r="1.92235" transform="matrix(-1 -8.74228e-08 -8.74228e-08 1 1.92238 20.5923)" fill="#6B8E46"/>
<circle r="1.92235" transform="matrix(-1 -8.74228e-08 -8.74228e-08 1 43.8364 37.061)" fill="#6B8E46"/>
<circle r="1.92235" transform="matrix(-1 -8.74228e-08 -8.74228e-08 1 1.92238 37.061)" fill="#6B8E46"/>
<circle r="1.92235" transform="matrix(-1 -8.74228e-08 -8.74228e-08 1 43.8364 2.28758)" fill="#6B8E46"/>
<circle r="1.92235" transform="matrix(-1 -8.74228e-08 -8.74228e-08 1 1.92238 2.28758)" fill="#6B8E46"/>
</svg>
