<svg width="104" height="104" viewBox="0 0 104 104" fill="none" xmlns="http://www.w3.org/2000/svg">
<g filter="url(#filter0_d_63_6161)">
<path d="M59.4595 29.4738V5.74643C59.4595 4.75281 59.0648 3.7999 58.3622 3.0973C57.6596 2.39471 56.7067 2 55.7131 2H20.7464C19.7528 2 18.7999 2.39471 18.0973 3.0973C17.3947 3.7999 17 4.75281 17 5.74643V43.2107H39.4786V35.7179C39.4806 34.0624 40.139 32.4754 41.3096 31.3048C42.4802 30.1343 44.0672 29.4758 45.7226 29.4738H59.4595ZM38.2298 28.225C36.2538 28.225 34.3223 27.6391 32.6794 26.5413C31.0364 25.4435 29.7559 23.8832 28.9998 22.0577C28.2436 20.2322 28.0458 18.2234 28.4313 16.2855C28.8167 14.3475 29.7682 12.5674 31.1654 11.1702C32.5626 9.773 34.3428 8.8215 36.2807 8.43601C38.2187 8.05053 40.2274 8.24837 42.053 9.00453C43.8785 9.76068 45.4388 11.0412 46.5365 12.6841C47.6343 14.327 48.2202 16.2586 48.2202 18.2345C48.2173 20.8832 47.1637 23.4226 45.2908 25.2956C43.4179 27.1685 40.8785 28.222 38.2298 28.225Z" fill="url(#paint0_linear_63_6161)"/>
<path d="M39.4785 61.943H20.7464C20.327 61.9434 19.9086 61.9016 19.4976 61.8181V63.1918C19.4976 63.8542 19.7607 64.4895 20.2291 64.9579C20.6975 65.4263 21.3328 65.6894 21.9952 65.6894H40.008C39.6596 64.9028 39.4793 64.0521 39.4785 63.1918V61.943Z" fill="url(#paint1_linear_63_6161)"/>
<path d="M49.4692 70.6846C49.4692 71.0158 49.6008 71.3334 49.835 71.5676C50.0692 71.8018 50.3868 71.9334 50.718 71.9334H78.1919C78.5231 71.9334 78.8407 71.8018 79.0749 71.5676C79.3091 71.3334 79.4407 71.0158 79.4407 70.6846V69.4358H49.4692V70.6846Z" fill="url(#paint2_linear_63_6161)"/>
<path d="M38.2297 10.7417C36.7477 10.7417 35.2991 11.1811 34.0669 12.0045C32.8347 12.8278 31.8743 13.998 31.3072 15.3672C30.7401 16.7363 30.5917 18.2429 30.8808 19.6963C31.1699 21.1498 31.8835 22.4849 32.9314 23.5328C33.9793 24.5807 35.3144 25.2943 36.7679 25.5834C38.2214 25.8726 39.7279 25.7242 41.0971 25.1571C42.4662 24.5899 43.6364 23.6296 44.4598 22.3974C45.2831 21.1652 45.7225 19.7165 45.7225 18.2346C45.7205 16.2479 44.9305 14.3433 43.5257 12.9385C42.121 11.5337 40.2163 10.7437 38.2297 10.7417ZM41.6102 16.6198L39.1126 19.1175C38.8771 19.3449 38.5616 19.4708 38.2342 19.468C37.9067 19.4651 37.5935 19.3338 37.362 19.1023C37.1304 18.8707 36.9991 18.5575 36.9963 18.2301C36.9934 17.9026 37.1193 17.5872 37.3468 17.3516L39.8444 14.854C40.0799 14.6265 40.3954 14.5007 40.7228 14.5035C41.0502 14.5064 41.3635 14.6377 41.595 14.8692C41.8265 15.1008 41.9579 15.414 41.9607 15.7414C41.9636 16.0689 41.8377 16.3843 41.6102 16.6198Z" fill="url(#paint3_linear_63_6161)"/>
<path d="M25.7415 53.2012C26.4312 53.2012 26.9903 52.6421 26.9903 51.9524C26.9903 51.2627 26.4312 50.7036 25.7415 50.7036C25.0518 50.7036 24.4927 51.2627 24.4927 51.9524C24.4927 52.6421 25.0518 53.2012 25.7415 53.2012Z" fill="url(#paint4_linear_63_6161)"/>
<path d="M39.4786 59.4452V55.469C39.0786 55.6169 38.6562 55.6946 38.2298 55.6987C37.2361 55.6987 36.2832 55.304 35.5806 54.6014C34.878 53.8988 34.4833 52.9459 34.4833 51.9523C34.4833 50.9587 34.878 50.0058 35.5806 49.3032C36.2832 48.6006 37.2361 48.2059 38.2298 48.2059C38.6562 48.21 39.0786 48.2877 39.4786 48.4356V45.7083H17V55.6987C17 56.6923 17.3947 57.6453 18.0973 58.3479C18.7999 59.0504 19.7528 59.4452 20.7464 59.4452H39.4786ZM25.7417 48.2059C26.4826 48.2059 27.207 48.4256 27.8231 48.8373C28.4392 49.2489 28.9194 49.834 29.2029 50.5186C29.4865 51.2032 29.5607 51.9565 29.4161 52.6832C29.2716 53.4099 28.9147 54.0775 28.3908 54.6014C27.8668 55.1254 27.1993 55.4822 26.4726 55.6267C25.7458 55.7713 24.9925 55.6971 24.308 55.4135C23.6234 55.13 23.0383 54.6498 22.6266 54.0337C22.215 53.4176 21.9952 52.6933 21.9952 51.9523C21.9952 50.9587 22.3899 50.0058 23.0925 49.3032C23.7951 48.6006 24.7481 48.2059 25.7417 48.2059Z" fill="url(#paint5_linear_63_6161)"/>
<path d="M23.2441 68.187H26.9906V71.9334H23.2441V68.187Z" fill="url(#paint6_linear_63_6161)"/>
<path d="M38.2298 53.2012C38.9195 53.2012 39.4786 52.6421 39.4786 51.9524C39.4786 51.2627 38.9195 50.7036 38.2298 50.7036C37.5401 50.7036 36.981 51.2627 36.981 51.9524C36.981 52.6421 37.5401 53.2012 38.2298 53.2012Z" fill="url(#paint7_linear_63_6161)"/>
<path d="M55.633 42.52C55.2306 44.3906 54.5181 46.1807 53.525 47.8162C52.9074 48.8309 52.4262 49.9226 52.0939 51.0631C51.9333 51.7442 51.9266 52.4525 52.0744 53.1365C52.2221 53.8205 52.5206 54.4629 52.9481 55.0169C53.3971 55.6002 53.9705 56.0762 54.6265 56.4102C55.2826 56.7442 56.0048 56.9277 56.7407 56.9475C57.4476 56.9781 58.1534 56.8673 58.8169 56.6215C59.4804 56.3758 60.0881 56 60.6045 55.5164C61.0278 55.1193 61.3659 54.6403 61.5984 54.1086C61.8309 53.5769 61.9529 53.0034 61.957 52.4231C61.957 48.3432 57.8359 44.3545 55.633 42.52Z" fill="url(#paint8_linear_63_6161)"/>
<path d="M80.6886 36.9668H48.2195C47.8883 36.9668 47.5707 37.0984 47.3365 37.3326C47.1023 37.5668 46.9707 37.8844 46.9707 38.2156V60.6942C46.9707 61.0254 47.1023 61.343 47.3365 61.5772C47.5707 61.8114 47.8883 61.943 48.2195 61.943H80.6886C81.0198 61.943 81.3374 61.8114 81.5716 61.5772C81.8058 61.343 81.9374 61.0254 81.9374 60.6942V38.2156C81.9374 37.8844 81.8058 37.5668 81.5716 37.3326C81.3374 37.0984 81.0198 36.9668 80.6886 36.9668ZM62.3386 57.3099C60.8807 58.6912 58.9458 59.4563 56.9375 59.4454C55.7844 59.454 54.6451 59.1951 53.6091 58.6889C52.5731 58.1827 51.6687 57.4431 50.9669 56.5282C50.3152 55.6803 49.8605 54.698 49.6358 53.6525C49.4112 52.607 49.4222 51.5246 49.6681 50.4839C50.0482 49.1261 50.6102 47.8259 51.339 46.6188C52.3907 44.9537 53.0638 43.0779 53.3109 41.1241C53.3428 40.7995 53.461 40.4894 53.6531 40.226C53.8453 39.9625 54.1044 39.7551 54.4036 39.6255C54.7121 39.4907 55.0511 39.4408 55.3853 39.4812C55.7195 39.5217 56.0368 39.6508 56.3043 39.8553C58.7495 41.736 64.454 46.7325 64.454 52.4233C64.4507 53.3386 64.2615 54.2437 63.8978 55.0837C63.5342 55.9237 63.0037 56.6811 62.3386 57.3099ZM78.1909 58.1966H68.2005C67.8693 58.1966 67.5516 58.065 67.3174 57.8308C67.0832 57.5966 66.9517 57.279 66.9517 56.9478C66.9517 56.6165 67.0832 56.2989 67.3174 56.0647C67.5516 55.8305 67.8693 55.6989 68.2005 55.6989H78.1909C78.5221 55.6989 78.8398 55.8305 79.074 56.0647C79.3082 56.2989 79.4398 56.6165 79.4398 56.9478C79.4398 57.279 79.3082 57.5966 79.074 57.8308C78.8398 58.065 78.5221 58.1966 78.1909 58.1966ZM78.1909 53.2013H68.2005C67.8693 53.2013 67.5516 53.0698 67.3174 52.8356C67.0832 52.6014 66.9517 52.2837 66.9517 51.9525C66.9517 51.6213 67.0832 51.3037 67.3174 51.0695C67.5516 50.8353 67.8693 50.7037 68.2005 50.7037H78.1909C78.5221 50.7037 78.8398 50.8353 79.074 51.0695C79.3082 51.3037 79.4398 51.6213 79.4398 51.9525C79.4398 52.2837 79.3082 52.6014 79.074 52.8356C78.8398 53.0698 78.5221 53.2013 78.1909 53.2013ZM78.1909 48.2061H68.2005C67.8693 48.2061 67.5516 48.0745 67.3174 47.8403C67.0832 47.6061 66.9517 47.2885 66.9517 46.9573C66.9517 46.6261 67.0832 46.3084 67.3174 46.0742C67.5516 45.84 67.8693 45.7085 68.2005 45.7085H78.1909C78.5221 45.7085 78.8398 45.84 79.074 46.0742C79.3082 46.3084 79.4398 46.6261 79.4398 46.9573C79.4398 47.2885 79.3082 47.6061 79.074 47.8403C78.8398 48.0745 78.5221 48.2061 78.1909 48.2061ZM78.1909 43.2108H68.2005C67.8693 43.2108 67.5516 43.0793 67.3174 42.8451C67.0832 42.6109 66.9517 42.2932 66.9517 41.962C66.9517 41.6308 67.0832 41.3132 67.3174 41.079C67.5516 40.8448 67.8693 40.7132 68.2005 40.7132H78.1909C78.5221 40.7132 78.8398 40.8448 79.074 41.079C79.3082 41.3132 79.4398 41.6308 79.4398 41.962C79.4398 42.2932 79.3082 42.6109 79.074 42.8451C78.8398 43.0793 78.5221 43.2108 78.1909 43.2108Z" fill="url(#paint9_linear_63_6161)"/>
<path d="M83.1868 31.9714H45.7225C44.7289 31.9714 43.776 32.3661 43.0734 33.0687C42.3708 33.7713 41.9761 34.7242 41.9761 35.7179V63.1917C41.9761 64.1853 42.3708 65.1382 43.0734 65.8408C43.776 66.5434 44.7289 66.9381 45.7225 66.9381H83.1868C84.1804 66.9381 85.1333 66.5434 85.8359 65.8408C86.5385 65.1382 86.9332 64.1853 86.9332 63.1917V35.7179C86.9332 34.7242 86.5385 33.7713 85.8359 33.0687C85.1333 32.3661 84.1804 31.9714 83.1868 31.9714ZM84.4356 60.6941C84.4356 61.6877 84.0409 62.6406 83.3383 63.3432C82.6357 64.0458 81.6828 64.4405 80.6892 64.4405H48.2201C47.2265 64.4405 46.2736 64.0458 45.571 63.3432C44.8684 62.6406 44.4737 61.6877 44.4737 60.6941V38.2155C44.4737 37.2219 44.8684 36.2689 45.571 35.5664C46.2736 34.8638 47.2265 34.4691 48.2201 34.4691H80.6892C81.6828 34.4691 82.6357 34.8638 83.3383 35.5664C84.0409 36.2689 84.4356 37.2219 84.4356 38.2155V60.6941Z" fill="url(#paint10_linear_63_6161)"/>
</g>
<defs>
<filter id="filter0_d_63_6161" x="0" y="0" width="103.933" height="103.933" filterUnits="userSpaceOnUse" color-interpolation-filters="sRGB">
<feFlood flood-opacity="0" result="BackgroundImageFix"/>
<feColorMatrix in="SourceAlpha" type="matrix" values="0 0 0 0 0 0 0 0 0 0 0 0 0 0 0 0 0 0 127 0" result="hardAlpha"/>
<feOffset dy="15"/>
<feGaussianBlur stdDeviation="8.5"/>
<feComposite in2="hardAlpha" operator="out"/>
<feColorMatrix type="matrix" values="0 0 0 0 0.384314 0 0 0 0 0.52549 0 0 0 0 0.266667 0 0 0 0.35 0"/>
<feBlend mode="normal" in2="BackgroundImageFix" result="effect1_dropShadow_63_6161"/>
<feBlend mode="normal" in="SourceGraphic" in2="effect1_dropShadow_63_6161" result="shape"/>
</filter>
<linearGradient id="paint0_linear_63_6161" x1="33.0075" y1="2" x2="54.7424" y2="14.501" gradientUnits="userSpaceOnUse">
<stop stop-color="#98BA53"/>
<stop offset="1" stop-color="#628644"/>
</linearGradient>
<linearGradient id="paint1_linear_63_6161" x1="27.2301" y1="61.8181" x2="28.6636" y2="66.0577" gradientUnits="userSpaceOnUse">
<stop stop-color="#98BA53"/>
<stop offset="1" stop-color="#628644"/>
</linearGradient>
<linearGradient id="paint2_linear_63_6161" x1="60.7686" y1="69.4358" x2="61.2137" y2="72.4173" gradientUnits="userSpaceOnUse">
<stop stop-color="#98BA53"/>
<stop offset="1" stop-color="#628644"/>
</linearGradient>
<linearGradient id="paint3_linear_63_6161" x1="36.3865" y1="10.7417" x2="44.1698" y2="15.0867" gradientUnits="userSpaceOnUse">
<stop stop-color="#98BA53"/>
<stop offset="1" stop-color="#628644"/>
</linearGradient>
<linearGradient id="paint4_linear_63_6161" x1="25.4343" y1="50.7036" x2="26.7315" y2="51.4278" gradientUnits="userSpaceOnUse">
<stop stop-color="#98BA53"/>
<stop offset="1" stop-color="#628644"/>
</linearGradient>
<linearGradient id="paint5_linear_63_6161" x1="25.4745" y1="45.7083" x2="33.8221" y2="53.3336" gradientUnits="userSpaceOnUse">
<stop stop-color="#98BA53"/>
<stop offset="1" stop-color="#628644"/>
</linearGradient>
<linearGradient id="paint6_linear_63_6161" x1="24.6566" y1="68.187" x2="26.6024" y2="69.2733" gradientUnits="userSpaceOnUse">
<stop stop-color="#98BA53"/>
<stop offset="1" stop-color="#628644"/>
</linearGradient>
<linearGradient id="paint7_linear_63_6161" x1="37.9226" y1="50.7036" x2="39.2198" y2="51.4278" gradientUnits="userSpaceOnUse">
<stop stop-color="#98BA53"/>
<stop offset="1" stop-color="#628644"/>
</linearGradient>
<linearGradient id="paint8_linear_63_6161" x1="55.7341" y1="42.52" x2="61.6549" y2="44.8076" gradientUnits="userSpaceOnUse">
<stop stop-color="#98BA53"/>
<stop offset="1" stop-color="#628644"/>
</linearGradient>
<linearGradient id="paint9_linear_63_6161" x1="60.1533" y1="36.9668" x2="74.9413" y2="48.5242" gradientUnits="userSpaceOnUse">
<stop stop-color="#98BA53"/>
<stop offset="1" stop-color="#628644"/>
</linearGradient>
<linearGradient id="paint10_linear_63_6161" x1="58.9252" y1="31.9714" x2="79.1386" y2="46.4795" gradientUnits="userSpaceOnUse">
<stop stop-color="#98BA53"/>
<stop offset="1" stop-color="#628644"/>
</linearGradient>
</defs>
</svg>
