<svg width="198" height="2144" viewBox="0 0 198 2144" fill="none" xmlns="http://www.w3.org/2000/svg">
<path opacity="0.03" d="M194 2143.61L-25.255 2143.61L-25.255 1946.74L194 1946.74L194 1994.95L13.931 1994.95L13.931 2095.71L194 2095.71L194 2143.61ZM194 1902.16L-25.255 1902.16L-25.255 1749.77L12.376 1749.77L12.376 1855.82L63.691 1855.82L63.691 1757.23L101.633 1757.23L101.633 1855.82L156.369 1855.82L156.369 1749.77L194 1749.77L194 1902.16ZM194 1665.29L14.242 1665.29L14.242 1734.95L-25.255 1734.95L-25.255 1547.11L14.242 1547.11L14.242 1616.77L194 1616.77L194 1665.29ZM194 1520.7L-25.255 1520.7L-25.255 1418.38C-25.255 1393.71 -19.2424 1375.05 -7.21704 1362.4C4.60096 1349.54 20.8766 1343.12 41.61 1343.12C62.136 1343.12 78.5153 1349.54 90.748 1362.4C102.773 1375.05 108.786 1393.71 108.786 1418.38L108.786 1472.18L194 1472.18L194 1520.7ZM71.155 1472.18L71.155 1424.6C71.155 1412.99 68.5633 1404.38 63.38 1398.78C58.1966 1392.98 50.94 1390.08 41.61 1390.08C32.28 1390.08 25.127 1392.98 20.151 1398.78C14.9676 1404.38 12.376 1412.99 12.376 1424.6L12.376 1472.18L71.155 1472.18ZM84.217 1320.4C61.4103 1320.4 41.61 1316.15 24.816 1307.65C7.81462 1298.94 -5.35105 1286.5 -14.681 1270.33C-24.011 1254.16 -28.676 1234.98 -28.676 1212.79C-28.676 1190.61 -24.011 1171.43 -14.681 1155.26C-5.35105 1139.09 7.81461 1126.65 24.8159 1117.94C41.6099 1109.02 61.3066 1104.57 83.906 1104.57C106.92 1104.57 126.928 1109.02 143.929 1117.94C160.723 1126.65 173.889 1139.09 183.426 1155.26C192.756 1171.43 197.421 1190.61 197.421 1212.79C197.421 1234.98 192.756 1254.16 183.426 1270.33C173.889 1286.29 160.619 1298.63 143.618 1307.34C126.617 1316.05 106.816 1320.4 84.217 1320.4ZM84.217 1269.71C106.816 1269.71 124.543 1265.04 137.398 1255.71C150.045 1246.18 156.369 1231.87 156.369 1212.79C156.369 1194.13 150.045 1179.93 137.398 1170.19C124.543 1160.44 106.816 1155.57 84.217 1155.57C61.4103 1155.57 43.7869 1160.44 31.347 1170.19C18.6996 1179.73 12.3759 1193.93 12.3759 1212.79C12.3759 1231.87 18.6996 1246.18 31.347 1255.71C43.787 1265.04 61.4103 1269.71 84.217 1269.71ZM194 1066.65L-25.2551 1066.65L-25.2551 965.574C-25.2551 941.523 -20.1754 922.967 -10.0161 909.905C0.143265 896.843 14.0346 890.312 31.6579 890.312C44.7199 890.312 55.8123 894.251 64.9349 902.13C74.0576 909.801 80.1739 920.375 83.2839 933.852L78.3079 933.852C81.0033 918.095 87.0159 905.966 96.3459 897.465C105.469 888.757 117.39 884.403 132.111 884.403C151.6 884.403 166.839 891.349 177.828 905.24C188.609 918.924 194 937.895 194 962.153L194 1066.65ZM157.924 1020.31L157.924 968.062C157.924 956.037 155.643 946.81 151.082 940.383C146.521 933.956 139.264 930.742 129.312 930.742C119.153 930.742 111.896 933.956 107.542 940.383C102.981 946.81 100.7 956.037 100.7 968.062L100.7 1020.31L157.924 1020.31ZM64.9349 1020.31L64.9349 974.282C64.9349 961.635 62.6543 952.305 58.0929 946.292C53.5316 940.279 46.6896 937.273 37.5669 937.273C28.6516 937.273 21.9133 940.279 17.3519 946.292C12.7906 952.305 10.5099 961.635 10.5099 974.282L10.5099 1020.31L64.9349 1020.31ZM197.421 744.052C197.421 767.481 192.756 787.592 183.426 804.386C174.096 821.18 161.034 834.138 144.24 843.261C127.239 852.176 107.231 856.634 84.2169 856.634C61.2029 856.634 41.2989 852.176 24.5049 843.261C7.71093 834.138 -5.35107 821.18 -14.6811 804.386C-24.0111 787.592 -28.6761 767.481 -28.6761 744.052C-28.6761 728.917 -26.4991 715.129 -22.1451 702.689C-17.9984 690.249 -11.8821 679.675 -3.79608 670.967L34.4569 686.206C26.9929 695.743 21.7059 704.866 18.5959 713.574C15.4859 722.075 13.9309 731.716 13.9309 742.497C13.9309 763.023 20.0473 778.78 32.2799 789.769C44.3053 800.55 61.6176 805.941 84.2169 805.941C106.816 805.941 124.232 800.55 136.465 789.769C148.698 778.78 154.814 763.023 154.814 742.497C154.814 731.716 153.259 722.075 150.149 713.574C147.039 704.866 141.752 695.743 134.288 686.206L172.541 670.967C180.42 679.675 186.536 690.249 190.89 702.689C195.244 715.129 197.421 728.917 197.421 744.052ZM194 637.202L-25.2551 637.202L-25.2551 589.308L65.5569 589.308L65.5569 556.342L70.8439 564.739L-25.2551 503.161L-25.2551 450.291L80.1739 520.888L67.1119 539.859C69.5999 525.138 74.6796 513.009 82.3509 503.472C90.0223 493.727 100.907 485.33 115.006 478.281L194 438.784L194 491.032L131.8 520.577C121.848 525.138 114.902 530.736 110.963 537.371C106.816 544.005 104.743 552.506 104.743 562.873L104.743 589.308L194 589.308L194 637.202ZM194 416.404L-25.2551 416.404L-25.2551 371.62L127.135 371.62L127.135 379.395L-25.2551 260.593L-25.2551 224.517L194 224.517L194 269.612L41.6099 269.612L41.6099 261.837L194 380.95L194 416.404ZM194 180.117L-25.2551 180.117L-25.2551 135.333L127.135 135.333L127.135 143.108L-25.2551 24.3058L-25.2551 -11.7702L194 -11.7702L194 33.3248L41.6099 33.3248L41.6099 25.5498L194 144.663L194 180.117ZM-42.3601 84.3288C-42.3601 96.5614 -44.2261 107.239 -47.9581 116.362C-51.8974 125.277 -57.1844 132.534 -63.8191 138.132C-70.6611 143.522 -78.5398 147.254 -87.4551 149.328L-94.9191 126.314C-84.9671 122.582 -77.8141 117.295 -73.4601 110.453C-69.1061 103.611 -66.9291 94.7991 -66.9291 84.0178C-66.9291 73.0291 -69.2098 64.2174 -73.7711 57.5828C-78.3324 50.7408 -85.2781 45.4538 -94.6081 41.7218L-87.4551 19.6408C-73.1491 23.5801 -62.0568 31.1478 -54.1781 42.3438C-46.2994 53.5398 -42.3601 67.5348 -42.3601 84.3288Z" fill="#9DBF78"/>
</svg>
