<svg width="188" height="1283" viewBox="0 0 188 1283" fill="none" xmlns="http://www.w3.org/2000/svg">
<path opacity="0.04" d="M191 1282.36L0.649984 1282.36L0.649982 1240.78L79.49 1240.78L79.49 1212.16L84.08 1219.45L0.649979 1165.99L0.649977 1120.09L92.18 1181.38L80.84 1197.85C83 1185.07 87.41 1174.54 94.07 1166.26C100.73 1157.8 110.18 1150.51 122.42 1144.39L191 1110.1L191 1155.46L137 1181.11C128.36 1185.07 122.33 1189.93 118.91 1195.69C115.31 1201.45 113.51 1208.83 113.51 1217.83L113.51 1240.78L191 1240.78L191 1282.36ZM191 1090.67L0.649976 1090.67L0.649972 1002.92C0.649971 982.039 5.05997 965.929 13.88 954.589C22.7 943.249 34.76 937.579 50.06 937.579C61.4 937.579 71.03 940.999 78.95 947.839C86.87 954.499 92.18 963.679 94.88 975.379L90.56 975.379C92.9 961.699 98.12 951.169 106.22 943.789C114.14 936.229 124.49 932.449 137.27 932.449C154.19 932.449 167.42 938.479 176.96 950.539C186.32 962.419 191 978.889 191 999.949L191 1090.67ZM159.68 1050.44L159.68 1005.08C159.68 994.639 157.7 986.629 153.74 981.049C149.78 975.469 143.48 972.679 134.84 972.679C126.02 972.679 119.72 975.469 115.94 981.049C111.98 986.629 110 994.639 110 1005.08L110 1050.44L159.68 1050.44ZM78.95 1050.44L78.95 1010.48C78.95 999.499 76.97 991.399 73.01 986.179C69.05 980.959 63.11 978.349 55.19 978.349C47.45 978.349 41.6 980.959 37.64 986.179C33.68 991.399 31.7 999.499 31.7 1010.48L31.7 1050.44L78.95 1050.44ZM191 927.718L0.649965 840.238L0.649963 805.408L191 716.848L191 759.508L138.08 782.458L149.69 765.988L149.69 879.118L138.08 862.378L191 885.328L191 927.718ZM44.93 822.958L127.55 857.788L117.29 865.078L117.29 780.028L127.55 786.238L44.93 821.878L44.93 822.958ZM191 700.435L0.649959 700.435L0.649955 611.605C0.649954 590.185 5.86996 573.985 16.31 563.005C26.57 551.845 40.7 546.265 58.7 546.265C76.52 546.265 90.74 551.845 101.36 563.005C111.8 573.985 117.02 590.185 117.02 611.605L117.02 658.315L191 658.315L191 700.435ZM84.35 658.315L84.35 617.005C84.35 606.925 82.1 599.455 77.6 594.595C73.1 589.555 66.8 587.035 58.7 587.035C50.6 587.035 44.39 589.555 40.07 594.595C35.57 599.455 33.32 606.925 33.32 617.005L33.32 658.315L84.35 658.315ZM191 478.71L34.94 478.71L34.94 539.19L0.649952 539.19L0.649945 376.11L34.94 376.11L34.94 436.59L191 436.59L191 478.71ZM191 399.056L0.649942 311.576L0.64994 276.746L191 188.186L191 230.846L138.08 253.796L149.69 237.326L149.69 350.456L138.08 333.716L191 356.666L191 399.056ZM44.93 294.296L127.55 329.126L117.29 336.416L117.29 251.366L127.55 257.576L44.93 293.216L44.93 294.296ZM195.86 167.183L165.62 187.973C161.3 180.413 156.35 173.843 150.77 168.263C145.01 162.503 138.08 157.823 129.98 154.223C121.88 150.623 112.07 147.923 100.55 146.123C89.0299 144.323 75.2599 143.423 59.2399 143.423L0.649934 143.423L0.649928 0.322882L191 0.322874L191 42.1729L34.6699 42.1729L34.6699 104.813L69.4999 104.813C86.7799 104.813 102.26 106.253 115.94 109.133C129.44 111.833 141.32 115.883 151.58 121.283C161.84 126.503 170.66 132.983 178.04 140.723C185.24 148.463 191.18 157.283 195.86 167.183Z" fill="#9DBF78"/>
</svg>
