<svg width="71" height="55" viewBox="0 0 71 55" fill="none" xmlns="http://www.w3.org/2000/svg">
<path d="M67.5368 13.157C67.2303 13.157 66.9158 13.201 66.6013 13.2873L63.0466 14.2665L59.3559 5.2749C58.31 2.72768 55.219 0.655029 52.4656 0.655029H17.9214C15.1676 0.655029 12.077 2.72768 11.0314 5.2749L7.34532 14.2539L3.83463 13.287C3.52047 13.2007 3.20595 13.1566 2.89948 13.1566C1.21927 13.1566 0 14.4402 0 16.2081V18.3035C0 20.3674 1.67951 22.0469 3.74342 22.0469H4.14565L3.54982 23.4982C2.57832 25.8641 1.78749 29.871 1.78749 32.4298V50.2924C1.78749 52.3564 3.467 54.0359 5.53092 54.0359H10.4199C12.4838 54.0359 14.1633 52.3564 14.1633 50.2924V45.8319H56.2234V50.2924C56.2234 52.3564 57.9029 54.0359 59.9668 54.0359H64.855C66.919 54.0359 68.5985 52.3564 68.5985 50.2924V32.4301C68.5985 29.8717 67.8076 25.8648 66.8361 23.4986L66.2403 22.0473H66.6925C68.7564 22.0473 70.4359 20.3678 70.4359 18.3039V16.2085C70.4363 14.4406 69.2167 13.157 67.5368 13.157ZM10.0288 20.0141L15.6125 6.4138C16.238 4.89015 18.0972 3.64327 19.7442 3.64327H50.6428C52.2898 3.64327 54.149 4.8898 54.7745 6.4138L60.3582 20.0141C60.9834 21.5378 60.1478 22.7846 58.5008 22.7846H11.8866C10.2392 22.7843 9.40364 21.5378 10.0288 20.0141ZM22.493 37.217C22.493 38.0407 21.8189 38.7141 20.996 38.7141H10.3891C9.56544 38.7141 8.89168 38.0404 8.89168 37.217V32.1268C8.89168 31.3034 9.56544 30.6297 10.3891 30.6297H20.996C21.8189 30.6297 22.493 31.3034 22.493 32.1268V37.217ZM61.3947 37.217C61.3947 38.0407 60.7206 38.7141 59.8976 38.7141H49.2908C48.4678 38.7141 47.7937 38.0404 47.7937 37.217V32.1268C47.7937 31.3034 48.4678 30.6297 49.2908 30.6297H59.8976C60.7206 30.6297 61.3947 31.3034 61.3947 32.1268V37.217Z" fill="url(#paint0_linear_63_6174)"/>
<defs>
<linearGradient id="paint0_linear_63_6174" x1="26.5547" y1="0.655032" x2="57.6608" y2="23.5677" gradientUnits="userSpaceOnUse">
<stop stop-color="#98BA53"/>
<stop offset="1" stop-color="#628644"/>
</linearGradient>
</defs>
</svg>
