<svg width="121" height="110" viewBox="0 0 121 110" fill="none" xmlns="http://www.w3.org/2000/svg">
<g filter="url(#filter0_d_63_6195)">
<path fill-rule="evenodd" clip-rule="evenodd" d="M59.323 68.6323C61.9074 68.6323 64.0062 70.7299 64.0062 73.313C64.0062 75.9024 61.9074 78 59.323 78C56.7323 78 54.6336 75.9024 54.6336 73.313C54.6336 70.7299 56.7323 68.6323 59.323 68.6323ZM92.8152 68.6323C95.4059 68.6323 97.5046 70.7299 97.5046 73.313C97.5046 75.9024 95.4059 78 92.8152 78C90.2307 78 88.132 75.9024 88.132 73.313C88.132 70.7299 90.2307 68.6323 92.8152 68.6323ZM59.323 70.8793C60.6681 70.8793 61.758 71.9686 61.758 73.313C61.758 74.6575 60.6681 75.753 59.323 75.753C57.9716 75.753 56.8818 74.6575 56.8818 73.313C56.8818 71.9686 57.9716 70.8793 59.323 70.8793ZM92.8152 70.8793C94.1603 70.8793 95.2564 71.9686 95.2564 73.313C95.2564 74.6575 94.1603 75.753 92.8152 75.753C91.47 75.753 90.3802 74.6575 90.3802 73.313C90.3802 71.9686 91.47 70.8793 92.8152 70.8793ZM52.8338 72.3794H48.1008C47.9264 72.1428 47.7956 71.8441 47.6898 71.5142C47.4158 70.6676 47.3286 69.6406 47.3286 68.7443C47.3286 66.7463 47.8891 65.2898 48.8543 64.5926C52.485 61.9908 55.4494 60.1609 59.6593 58.5052C63.8692 56.8495 67.9794 56.2893 73.522 56.3764C79.8742 56.4822 84.3518 59.3268 87.1605 63.0739C87.3349 63.3042 87.6089 63.4473 87.9016 63.4473C91.4949 63.4785 93.4566 63.7274 95.7297 64.3499C97.5918 64.8603 99.7029 65.8375 101.005 67.2691C102.219 68.5949 102.418 70.7299 102.15 72.3794H99.3044C98.8498 69.2049 96.1158 66.765 92.8152 66.765C89.5145 66.765 86.7806 69.2049 86.326 72.3794H65.8059C65.3513 69.2049 62.6174 66.765 59.323 66.765C56.0223 66.765 53.2884 69.2049 52.8338 72.3794ZM52.5411 59.9057V39.8755L37.9996 27.6819L23.4643 39.8755V70.4934H31.6536V50.1582C31.6536 49.6416 32.0709 49.2246 32.5878 49.2246H43.4114C43.9283 49.2246 44.3455 49.6416 44.3455 50.1582V70.4934H45.5661C45.4914 69.9021 45.4603 69.3045 45.4603 68.7443C45.4603 65.9807 46.4318 64.0387 47.7645 63.0801C49.4335 61.8788 50.9655 60.8393 52.5411 59.9057ZM33.5219 70.4934V51.0919H42.4772V70.4934H33.5219ZM69.966 57.1607C69.4678 57.1794 69.0754 57.5902 69.0754 58.0881V62.5137C69.0754 63.0303 69.4927 63.4473 70.0096 63.4473H84.4079C84.7878 63.4473 85.1303 63.217 85.2735 62.8622C85.4167 62.5075 85.3296 62.1029 85.0555 61.8414C82.1908 59.0965 78.2923 57.2105 73.2542 57.1234C72.0959 57.0985 71.006 57.1109 69.966 57.1607ZM68.6271 58.2686C68.6271 58.001 68.515 57.7458 68.3157 57.5715C68.1226 57.391 67.8548 57.3101 67.5933 57.335C64.7286 57.6462 62.1877 58.2935 59.6157 59.3828C57.8906 60.1111 56.3773 60.8704 54.945 61.7045C54.5838 61.9224 54.4032 62.3518 54.5153 62.7564C54.6273 63.1672 54.9948 63.4473 55.4183 63.4473H67.6929C68.2098 63.4473 68.6271 63.0303 68.6271 62.5137V58.2686ZM97.542 62.9681V39.8755L60.5 8.81573L43.5173 23.0572L60.9422 37.6721C61.1352 37.8339 61.2535 38.0704 61.2722 38.3194C61.2909 38.5746 61.2037 38.8236 61.0356 39.0103L57.5481 42.9006C57.2118 43.274 56.6389 43.3176 56.2528 42.9939L54.4094 41.4441V58.8537C55.8168 58.1068 57.299 57.4221 58.9805 56.7623C60.9671 55.9843 62.935 55.4303 65.0275 55.0631V50.1582C65.0275 49.6416 65.4447 49.2246 65.9616 49.2246H72.893C73.4099 49.2246 73.8271 49.6416 73.8271 50.1582V54.5153C75.3591 54.5589 76.7853 54.7456 78.118 55.0568V50.1582C78.118 49.6416 78.5352 49.2246 79.0521 49.2246H85.9897C86.5004 49.2246 86.9238 49.6416 86.9238 50.1582V59.9492C87.4407 60.4721 87.9203 61.0198 88.3687 61.5862C91.8997 61.636 93.9112 61.9161 96.2279 62.551C96.6576 62.6631 97.0998 62.8062 97.542 62.9681ZM70.9437 58.9907C71.6724 58.972 72.4321 58.972 73.2168 58.9844C76.6482 59.0467 79.488 60.0301 81.7736 61.58H70.9437V58.9907ZM66.7588 59.3268V61.58H59.2545C59.6032 61.4182 59.9644 61.2626 60.3381 61.1007C62.4306 60.2231 64.4981 59.6504 66.7588 59.3268ZM79.9863 55.5984C81.8981 56.2582 83.5858 57.1856 85.0555 58.306V51.0919H79.9863V55.5984ZM66.8958 54.7954C68.4776 54.6087 70.1466 54.5153 71.9588 54.5029V51.0919H66.8958V54.7954ZM42.06 21.8372L39.4506 19.6524L60.5 2L104 38.4812L101.764 40.9835L61.0979 6.87993C60.7553 6.58739 60.2447 6.58739 59.9021 6.87993L42.06 21.8372ZM56.7634 40.9835L38.6037 25.7523C38.2549 25.4598 37.7442 25.4598 37.4017 25.7523L19.2419 40.9835L17 38.4812L37.9996 20.8724L58.9991 38.4812L56.7634 40.9835Z" fill="url(#paint0_linear_63_6195)"/>
</g>
<defs>
<filter id="filter0_d_63_6195" x="0" y="0" width="121" height="110" filterUnits="userSpaceOnUse" color-interpolation-filters="sRGB">
<feFlood flood-opacity="0" result="BackgroundImageFix"/>
<feColorMatrix in="SourceAlpha" type="matrix" values="0 0 0 0 0 0 0 0 0 0 0 0 0 0 0 0 0 0 127 0" result="hardAlpha"/>
<feOffset dy="15"/>
<feGaussianBlur stdDeviation="8.5"/>
<feComposite in2="hardAlpha" operator="out"/>
<feColorMatrix type="matrix" values="0 0 0 0 0.384314 0 0 0 0 0.52549 0 0 0 0 0.266667 0 0 0 0.35 0"/>
<feBlend mode="normal" in2="BackgroundImageFix" result="effect1_dropShadow_63_6195"/>
<feBlend mode="normal" in="SourceGraphic" in2="effect1_dropShadow_63_6195" result="shape"/>
</filter>
<linearGradient id="paint0_linear_63_6195" x1="49.7995" y1="2" x2="91.8818" y2="28.8923" gradientUnits="userSpaceOnUse">
<stop stop-color="#98BA53"/>
<stop offset="1" stop-color="#628644"/>
</linearGradient>
</defs>
</svg>
